<?xml version="1.0" encoding="UTF-8" standalone="no"?>
<!-- Created with Inkscape (http://www.inkscape.org/) -->

<svg
   xmlns:dc="http://purl.org/dc/elements/1.1/"
   xmlns:cc="http://creativecommons.org/ns#"
   xmlns:rdf="http://www.w3.org/1999/02/22-rdf-syntax-ns#"
   xmlns:svg="http://www.w3.org/2000/svg"
   xmlns="http://www.w3.org/2000/svg"
   xmlns:sodipodi="http://sodipodi.sourceforge.net/DTD/sodipodi-0.dtd"
   xmlns:inkscape="http://www.inkscape.org/namespaces/inkscape"
   id="svg2"
   version="1.1"
   inkscape:version="0.91 r13725"
   width="4351.959"
   height="858.75"
   viewBox="0 0 4351.959 858.74999"
   sodipodi:docname="dl60gray.svg">
  <metadata
     id="metadata8">
    <rdf:RDF>
      <cc:Work
         rdf:about="">
        <dc:format>image/svg+xml</dc:format>
        <dc:type
           rdf:resource="http://purl.org/dc/dcmitype/StillImage" />
        <dc:title></dc:title>
      </cc:Work>
    </rdf:RDF>
  </metadata>
  <defs
     id="defs6" />
  <sodipodi:namedview
     pagecolor="#ffffff"
     bordercolor="#666666"
     borderopacity="1"
     objecttolerance="10"
     gridtolerance="10"
     guidetolerance="10"
     inkscape:pageopacity="0"
     inkscape:pageshadow="2"
     inkscape:window-width="1287"
     inkscape:window-height="744"
     id="namedview4"
     showgrid="false"
     inkscape:zoom="0.22627417"
     inkscape:cx="2296.0741"
     inkscape:cy="244.2525"
     inkscape:window-x="81"
     inkscape:window-y="24"
     inkscape:window-maximized="1"
     inkscape:current-layer="svg2"
     fit-margin-top="0"
     fit-margin-left="0"
     fit-margin-right="0"
     fit-margin-bottom="0" />
  <path
     style="color:#000000;font-style:normal;font-variant:normal;font-weight:normal;font-stretch:normal;font-size:medium;line-height:normal;font-family:sans-serif;text-indent:0;text-align:start;text-decoration:none;text-decoration-line:none;text-decoration-style:solid;text-decoration-color:#000000;letter-spacing:normal;word-spacing:normal;text-transform:none;direction:ltr;block-progression:tb;writing-mode:lr-tb;baseline-shift:baseline;text-anchor:start;white-space:normal;clip-rule:nonzero;display:inline;overflow:visible;visibility:visible;opacity:1;isolation:auto;mix-blend-mode:normal;color-interpolation:sRGB;color-interpolation-filters:linearRGB;solid-color:#000000;solid-opacity:1;fill:#666666;fill-opacity:1;fill-rule:nonzero;stroke:none;stroke-width:24.80000496;stroke-linecap:butt;stroke-linejoin:miter;stroke-miterlimit:4;stroke-dasharray:none;stroke-dashoffset:0;stroke-opacity:1;color-rendering:auto;image-rendering:auto;shape-rendering:auto;text-rendering:auto;enable-background:accumulate"
     d="m 501.83789,13.220703 c 11.46237,2.842553 22.22975,11.383261 24.68359,21.5625 -3.44801,21.797915 -10.30015,35.488861 -18.15234,52.419922 -8.12016,17.508875 -16.88702,38.319705 -20.58594,70.935545 l -0.0273,0.24414 -0.0176,0.24414 c -1.65264,22.51408 -4.06272,38.01129 -5.26367,50.10743 -1.20095,12.09613 -1.77048,22.67329 4.99609,31.93359 3.47269,4.75249 8.50259,6.51372 12.17578,7.17383 3.67319,0.6601 6.80438,0.54811 9.87696,0.36328 6.14516,-0.36966 12.1418,-1.24983 16.78906,-1.28516 4.64726,-0.0353 6.91204,1.00972 6.94336,1.03711 0.0286,0.025 1.0426,0.63213 0.54297,6.37109 -2.24129,5.58929 -5.92106,9.50929 -11.91016,13.04493 -6.39522,3.77539 -15.31136,6.66285 -25.42969,8.77343 -20.23664,4.22117 -44.53442,5.16122 -64.5664,10.64063 l -0.78906,0.2168 -0.75391,0.3164 c -10.94758,4.61219 -35.88598,1.86555 -50.76367,-6.85351 -7.43885,-4.35953 -11.94025,-9.63536 -13.21875,-13.66602 -0.96528,-3.04318 -1.16918,-6.07153 1.62695,-10.69922 23.85532,2.31163 48.13682,-0.83853 67.42383,-14.3457 20.89341,-14.63218 33.33941,-41.53718 31.18359,-78.7793 3.29723,-14.31567 4.669,-23.50891 1.95703,-32.60547 -1.40971,-4.7285 -5.49176,-10.40984 -11.34375,-12.33007 -5.85199,-1.92024 -10.71328,-0.39178 -14.28515,1.22265 -7.14375,3.22886 -12.21956,8.2248 -17.3125,13.64063 -5.09294,5.41582 -9.65738,11.26305 -13.04297,16.35351 l -0.25,0.37696 -0.22266,0.39257 c -5.51902,9.77389 -10.28476,11.50709 -15.41992,11.58594 -5.13516,0.0789 -11.93016,-2.93458 -17.41211,-8.43555 -5.48195,-5.50096 -9.18783,-13.07989 -9.63867,-19.38867 -0.43306,-6.05992 1.04037,-10.94513 7.69726,-16.11328 54.91425,-22.362572 86.51214,-71.293672 124.50977,-104.455077 z"
     id="path4253" />
  <path
     style="color:#000000;font-style:normal;font-variant:normal;font-weight:normal;font-stretch:normal;font-size:medium;line-height:normal;font-family:sans-serif;text-indent:0;text-align:start;text-decoration:none;text-decoration-line:none;text-decoration-style:solid;text-decoration-color:#000000;letter-spacing:normal;word-spacing:normal;text-transform:none;direction:ltr;block-progression:tb;writing-mode:lr-tb;baseline-shift:baseline;text-anchor:start;white-space:normal;clip-rule:nonzero;display:inline;overflow:visible;visibility:visible;opacity:1;isolation:auto;mix-blend-mode:normal;color-interpolation:sRGB;color-interpolation-filters:linearRGB;solid-color:#000000;solid-opacity:1;fill:#666666;fill-opacity:1;fill-rule:nonzero;stroke:none;stroke-width:24.80000496;stroke-linecap:butt;stroke-linejoin:miter;stroke-miterlimit:4;stroke-dasharray:none;stroke-dashoffset:0;stroke-opacity:1;color-rendering:auto;image-rendering:auto;shape-rendering:auto;text-rendering:auto;enable-background:accumulate"
     d="m 3796.9434,90.402344 c 4.7619,2.084743 9.1959,7.164672 12.0742,13.501956 5.7903,14.12482 12.7843,42.76889 11.5762,63.28515 -0.6065,10.29924 -3.3549,17.97895 -6.5938,21.48633 -3.2389,3.50739 -7.0645,5.56976 -18.5176,3.18164 l -7.9765,-1.66406 -4.6934,6.66211 c -23.2608,33.02226 -29.2688,72.36997 -34.8867,107.89453 -5.6723,13.16609 -7.198,25.36028 -3.0957,35.79297 4.3189,10.98343 14.0824,17.67383 23.9707,21.02734 19.7765,6.70702 43.1775,4.08303 61.416,-0.58203 l 1.6484,-0.42187 1.4746,-0.84961 c 12.5806,-7.25564 32.3985,-1.07719 42.5411,9.26758 5.0712,5.17238 6.8423,10.28846 6.4941,13.36718 -0.3203,2.83247 -2.0786,6.4424 -10.4336,10.61524 -16.8863,0.11999 -43.0195,-6.51464 -68.584,-8.12696 -13.3807,-0.8439 -26.9851,-0.25375 -39.6836,4.8711 -12.6985,5.12484 -23.9675,15.43748 -30.4531,30.60742 l -0.9785,2.28711 -0.02,2.48828 c -0.7056,87.65534 -6.9374,177.37441 -46.8321,253.99023 l -1.8672,3.58399 0.6036,3.99805 c 0.9072,5.99771 -0.9938,11.39683 -5.2481,16.60156 -4.2543,5.20472 -10.9559,9.57102 -17.2969,11.53711 -6.3409,1.96608 -11.6932,1.37131 -14.3769,-0.20703 -2.3205,-1.36475 -4.3693,-3.66745 -4.9024,-10.44141 21.3355,-32.17501 40.5159,-66.70977 52.3535,-104.60352 l 0.096,-0.30664 0.078,-0.30859 c 12.8909,-50.25355 18.8181,-102.2023 21.0176,-153.47266 1.9536,-9.79611 2.3494,-18.19599 0.582,-25.80468 -1.8384,-7.91421 -6.5744,-14.84444 -12.5879,-19.01368 -12.027,-8.33846 -25.6485,-7.76327 -38.6191,-7.56836 -12.9707,0.19492 -25.9014,0.76019 -35.1875,-1.24023 -8.8122,-1.89831 -13.5395,-4.5002 -16.9903,-12.72656 -1.0663,-11.16765 0.9558,-13.70012 3.8184,-15.625 3.0261,-2.03486 11.1742,-3.50875 22.0781,-3.00781 10.9039,0.50093 23.959,2.40713 36.9082,3.10937 12.9492,0.70224 26.1782,0.64459 38.1094,-5.94141 l 5.2558,-2.90039 0.9844,-5.92187 c 7.5285,-45.27998 14.7062,-90.2765 25.9805,-133.94531 18.5455,-45.46107 21.5738,-94.49874 50.7637,-124.476566 z"
     id="path4247" />
  <path
     style="color:#000000;font-style:normal;font-variant:normal;font-weight:normal;font-stretch:normal;font-size:medium;line-height:normal;font-family:sans-serif;text-indent:0;text-align:start;text-decoration:none;text-decoration-line:none;text-decoration-style:solid;text-decoration-color:#000000;letter-spacing:normal;word-spacing:normal;text-transform:none;direction:ltr;block-progression:tb;writing-mode:lr-tb;baseline-shift:baseline;text-anchor:start;white-space:normal;clip-rule:nonzero;display:inline;overflow:visible;visibility:visible;opacity:1;isolation:auto;mix-blend-mode:normal;color-interpolation:sRGB;color-interpolation-filters:linearRGB;solid-color:#000000;solid-opacity:1;fill:#666666;fill-opacity:1;fill-rule:nonzero;stroke:none;stroke-width:24.80000496;stroke-linecap:butt;stroke-linejoin:miter;stroke-miterlimit:4;stroke-dasharray:none;stroke-dashoffset:0;stroke-opacity:1;color-rendering:auto;image-rendering:auto;shape-rendering:auto;text-rendering:auto;enable-background:accumulate"
     d="m 2344.5684,94.267578 c 18.7352,0.256999 37.252,0.622076 55.457,2.136719 l 0.7051,0.05859 0.709,-0.02148 c 22.656,-0.702758 47.1992,4.983943 66.3789,16.539063 19.0125,11.45442 32.6796,27.98721 36.8359,50.73047 5.0457,92.08399 -22.3382,184.63164 -63.8262,267.68359 l -0.09,0.18164 -0.084,0.1836 c -51.5605,112.23739 -153.6683,189.84001 -244.3145,276.30273 -0.012,0.0111 -0.024,0.0221 -0.035,0.0332 -39.5896,34.08157 -72.4562,76.69121 -88.9902,127.9336 l 0.043,-0.13086 c -1.7708,5.28512 -3.6675,8.46432 -4.791,9.80664 -0.06,0.0711 -0.033,0.0329 -0.086,0.0937 -0.6408,-0.49086 -1.8752,-1.49718 -3.4336,-3.75 -3.0395,-4.39374 -5.9079,-11.68556 -6.8125,-18.54883 -0.9046,-6.86327 0.2139,-12.95084 2.2754,-16.16602 l 0.9082,-1.41601 0.498,-1.60547 c 20.5419,-66.2768 80.2195,-113.11572 133.4414,-162.43945 101.5548,-84.85269 193.2257,-190.56708 233.3653,-321.02344 l 0.1621,-0.52734 0.1152,-0.54102 c 10.0297,-47.16932 34.4619,-105.93347 20.9062,-161.46875 l -0.416,-1.69727 -0.8672,-1.51757 c -8.7436,-15.29147 -26.1768,-23.47219 -47.3378,-30.4375 -21.1611,-6.96532 -46.5281,-11.33576 -71.5918,-11.61914 -50.1274,-0.56676 -96.1954,15.3789 -96.1954,15.3789 l -5.8066,1.98242 -1.9453,5.82032 c -2.8741,8.59376 -6.5852,10.95735 -11.4238,12.16601 -4.8387,1.20867 -11.706,0.12763 -17.6993,-3.14062 -5.9932,-3.26826 -10.6169,-8.50762 -12.1679,-12.95703 -1.5301,-4.38919 -1.5905,-7.88504 3.414,-13.73829 14.1799,-14.6037 32.1672,-19.301726 53.8711,-21.035151 21.3907,-1.708399 45.3925,-0.01484 68.8282,-3.25 z"
     id="path4245" />
  <path
     style="color:#000000;font-style:normal;font-variant:normal;font-weight:normal;font-stretch:normal;font-size:medium;line-height:normal;font-family:sans-serif;text-indent:0;text-align:start;text-decoration:none;text-decoration-line:none;text-decoration-style:solid;text-decoration-color:#000000;letter-spacing:normal;word-spacing:normal;text-transform:none;direction:ltr;block-progression:tb;writing-mode:lr-tb;baseline-shift:baseline;text-anchor:start;white-space:normal;clip-rule:nonzero;display:inline;overflow:visible;visibility:visible;opacity:1;isolation:auto;mix-blend-mode:normal;color-interpolation:sRGB;color-interpolation-filters:linearRGB;solid-color:#000000;solid-opacity:1;fill:#666666;fill-opacity:1;fill-rule:nonzero;stroke:none;stroke-width:24.80000496;stroke-linecap:butt;stroke-linejoin:miter;stroke-miterlimit:4;stroke-dasharray:none;stroke-dashoffset:0;stroke-opacity:1;color-rendering:auto;image-rendering:auto;shape-rendering:auto;text-rendering:auto;enable-background:accumulate"
     d="m 3212.9883,163.14062 c 2.9085,1.13771 5.7826,3.13797 8.1797,5.81055 42.3042,69.78639 75.8198,154.55971 48.8808,232.06836 l -1.2578,3.61719 1.002,3.69531 c 1.4359,5.29917 0.2555,8.88116 -2.8321,12.8418 -3.0875,3.96064 -8.5571,7.43967 -13.539,8.83398 -4.9819,1.39432 -8.5489,0.40163 -9.2188,-0.10351 -0.6127,-0.46205 -1.9207,-1.39657 -0.7754,-7.97852 29.8058,-48.3599 33.7643,-109.70463 11.5977,-161.78125 l 0.4492,1.23047 c -7.3917,-24.1628 -28.7127,-43.293 -40.5391,-61.125 -5.9131,-8.916 -9.1486,-16.78761 -9.207,-22.47656 -0.048,-4.69676 1.3865,-9.04526 7.2598,-14.63282 z"
     id="path4229" />
  <path
     style="color:#000000;font-style:normal;font-variant:normal;font-weight:normal;font-stretch:normal;font-size:medium;line-height:normal;font-family:sans-serif;text-indent:0;text-align:start;text-decoration:none;text-decoration-line:none;text-decoration-style:solid;text-decoration-color:#000000;letter-spacing:normal;word-spacing:normal;text-transform:none;direction:ltr;block-progression:tb;writing-mode:lr-tb;baseline-shift:baseline;text-anchor:start;white-space:normal;clip-rule:nonzero;display:inline;overflow:visible;visibility:visible;opacity:1;isolation:auto;mix-blend-mode:normal;color-interpolation:sRGB;color-interpolation-filters:linearRGB;solid-color:#000000;solid-opacity:1;fill:#666666;fill-opacity:1;fill-rule:nonzero;stroke:none;stroke-width:24.80000496;stroke-linecap:butt;stroke-linejoin:miter;stroke-miterlimit:4;stroke-dasharray:none;stroke-dashoffset:0;stroke-opacity:1;color-rendering:auto;image-rendering:auto;shape-rendering:auto;text-rendering:auto;enable-background:accumulate"
     d="m 1628.3633,163.64258 c 15.9662,8.62997 27.0724,26.38391 35.7637,45.5625 26.1252,62.38085 46.4461,128.08748 51.8593,194.76953 l 0,0.0156 0,0.0156 c 1.775,21.1943 0.2636,47.70846 -7.5176,67.54687 -7.5111,19.14984 -18.588,31.50867 -40.5508,33.50196 -4.9185,-1.77716 -8.2691,-3.60032 -9.6562,-4.82227 -1.6063,-1.41496 -1.4053,-1.50756 -1.4746,-2.16015 -0.1388,-1.30519 2.0416,-7.91551 7.9316,-16.10157 5.89,-8.18606 14.2199,-17.69139 21.4277,-27.91015 7.2079,-10.21877 14.0036,-21.38356 13.9356,-35.02539 l 0,-0.0449 0,-0.0469 c -0.7249,-58.58279 -13.3587,-117.73144 -35.5957,-171.99219 -3.9382,-10.45184 -11.04,-19.58692 -18.375,-29.0332 -7.3415,-9.45466 -15.0368,-18.95255 -20.209,-27.32422 -5.1721,-8.37167 -7.026,-15.15152 -6.5468,-18.20898 0.3991,-2.54679 1.8449,-5.31597 9.0078,-8.74219 z"
     id="path4227" />
  <path
     style="color:#000000;font-style:normal;font-variant:normal;font-weight:normal;font-stretch:normal;font-size:medium;line-height:normal;font-family:sans-serif;text-indent:0;text-align:start;text-decoration:none;text-decoration-line:none;text-decoration-style:solid;text-decoration-color:#000000;letter-spacing:normal;word-spacing:normal;text-transform:none;direction:ltr;block-progression:tb;writing-mode:lr-tb;baseline-shift:baseline;text-anchor:start;white-space:normal;clip-rule:nonzero;display:inline;overflow:visible;visibility:visible;opacity:1;isolation:auto;mix-blend-mode:normal;color-interpolation:sRGB;color-interpolation-filters:linearRGB;solid-color:#000000;solid-opacity:1;fill:#666666;fill-opacity:1;fill-rule:nonzero;stroke:none;stroke-width:24.80000496;stroke-linecap:butt;stroke-linejoin:miter;stroke-miterlimit:4;stroke-dasharray:none;stroke-dashoffset:0;stroke-opacity:1;color-rendering:auto;image-rendering:auto;shape-rendering:auto;text-rendering:auto;enable-background:accumulate"
     d="m 2311.4883,168.88672 c 3.0709,0.16343 7.1976,1.7374 11.6133,3.88281 0.5975,43.69482 -1.4318,98.62016 -3.4493,146.8457 -6.3972,50.73908 6.354,99.63832 -12.4453,138.70118 -5.0902,3.20771 -6.1023,2.48707 -6.9687,1.94921 -1.0061,-0.6246 -4.2936,-5.04727 -6.0528,-12.65039 -3.5183,-15.20622 -0.6697,-40.25694 3.0372,-47.85937 l 1.0332,-2.11719 0.1836,-2.34961 c 4.2824,-54.71945 5.2685,-109.91464 6.7675,-164.39648 l 0.09,-3.22852 -1.4981,-2.86328 c -0.6167,-1.17855 -2.6451,-12.49383 -2.6816,-24.14844 -0.031,-9.78823 0.4728,-19.88069 0.7598,-28.45898 3.4578,-3.00383 6.1226,-3.49231 9.6113,-3.30664 z"
     id="path4225" />
  <path
     style="color:#000000;font-style:normal;font-variant:normal;font-weight:normal;font-stretch:normal;font-size:medium;line-height:normal;font-family:sans-serif;text-indent:0;text-align:start;text-decoration:none;text-decoration-line:none;text-decoration-style:solid;text-decoration-color:#000000;letter-spacing:normal;word-spacing:normal;text-transform:none;direction:ltr;block-progression:tb;writing-mode:lr-tb;baseline-shift:baseline;text-anchor:start;white-space:normal;clip-rule:nonzero;display:inline;overflow:visible;visibility:visible;opacity:1;isolation:auto;mix-blend-mode:normal;color-interpolation:sRGB;color-interpolation-filters:linearRGB;solid-color:#000000;solid-opacity:1;fill:#666666;fill-opacity:1;fill-rule:nonzero;stroke:none;stroke-width:24.80000496;stroke-linecap:butt;stroke-linejoin:miter;stroke-miterlimit:4;stroke-dasharray:none;stroke-dashoffset:0;stroke-opacity:1;color-rendering:auto;image-rendering:auto;shape-rendering:auto;text-rendering:auto;enable-background:accumulate"
     d="m 4303.2559,171.70508 c 2.0904,1.91733 4.0085,4.07811 5.75,6.71875 4.4176,6.69879 7.6812,15.97072 9.9257,26.5332 4.412,20.7623 4.7371,45.559 8.4766,65.60938 2.5139,77.1297 29.2748,154.59887 -7.3437,217.72851 -3.192,4.84011 -5.9978,7.49438 -7.6055,8.53906 -1.6364,1.06336 -1.6561,0.73692 -1.5137,0.75977 0.2849,0.0457 -2.5055,-1.45539 -4.4375,-6.83203 -1.932,-5.37664 -2.3805,-12.9974 -0.7363,-18.68164 1.6442,-5.68424 4.2027,-9.14057 9.8613,-11.02539 l 5.7988,-1.93164 2,-5.77539 c 19.2786,-55.6905 7.5724,-112.95342 0.7305,-165.01758 3.9306,-26.76732 -5.4848,-50.6419 -12.5801,-71.90039 -5.4627,-16.3671 -9.5708,-30.76887 -8.3261,-44.72461 z"
     id="path4223" />
  <path
     style="color:#000000;font-style:normal;font-variant:normal;font-weight:normal;font-stretch:normal;font-size:medium;line-height:normal;font-family:sans-serif;text-indent:0;text-align:start;text-decoration:none;text-decoration-line:none;text-decoration-style:solid;text-decoration-color:#000000;letter-spacing:normal;word-spacing:normal;text-transform:none;direction:ltr;block-progression:tb;writing-mode:lr-tb;baseline-shift:baseline;text-anchor:start;white-space:normal;clip-rule:nonzero;display:inline;overflow:visible;visibility:visible;opacity:1;isolation:auto;mix-blend-mode:normal;color-interpolation:sRGB;color-interpolation-filters:linearRGB;solid-color:#000000;solid-opacity:1;fill:#666666;fill-opacity:1;fill-rule:nonzero;stroke:none;stroke-width:24.80000496;stroke-linecap:butt;stroke-linejoin:miter;stroke-miterlimit:4;stroke-dasharray:none;stroke-dashoffset:0;stroke-opacity:1;color-rendering:auto;image-rendering:auto;shape-rendering:auto;text-rendering:auto;enable-background:accumulate"
     d="m 1258.5,173.95117 c 5.5856,1.94586 9.3099,5.94404 11.957,11.52539 3.4619,7.29915 3.9187,17.1809 0.8418,25.19532 -22.8229,47.34071 -42.3142,97.27862 -50.4668,150.74414 l -0.053,0.33984 -0.033,0.34375 c -3.6213,37.70567 -16.9904,87.28351 9.4805,128.3125 l 3.0781,4.76953 5.6211,0.78711 c 13.9366,1.95279 15.9345,5.75069 16.6054,8.21094 0.671,2.46025 -0.6686,8.22067 -5.1445,13.39453 -4.4758,5.17385 -11.1991,8.58648 -15.4961,8.68555 -4.297,0.0991 -7.6581,-0.51578 -12.0644,-10.69532 l -0.293,-0.67578 -0.3691,-0.63672 c -33.6048,-57.72501 -30.4667,-129.66382 -13.2989,-195.00195 12.5782,-26.64401 17.0009,-55.2527 23.0567,-81.47461 5.6107,-24.29489 12.5219,-46.14476 26.5781,-63.82422 z"
     id="path4221" />
  <path
     style="color:#000000;font-style:normal;font-variant:normal;font-weight:normal;font-stretch:normal;font-size:medium;line-height:normal;font-family:sans-serif;text-indent:0;text-align:start;text-decoration:none;text-decoration-line:none;text-decoration-style:solid;text-decoration-color:#000000;letter-spacing:normal;word-spacing:normal;text-transform:none;direction:ltr;block-progression:tb;writing-mode:lr-tb;baseline-shift:baseline;text-anchor:start;white-space:normal;clip-rule:nonzero;display:inline;overflow:visible;visibility:visible;opacity:1;isolation:auto;mix-blend-mode:normal;color-interpolation:sRGB;color-interpolation-filters:linearRGB;solid-color:#000000;solid-opacity:1;fill:#666666;fill-opacity:1;fill-rule:nonzero;stroke:none;stroke-width:24.80000496;stroke-linecap:butt;stroke-linejoin:miter;stroke-miterlimit:4;stroke-dasharray:none;stroke-dashoffset:0;stroke-opacity:1;color-rendering:auto;image-rendering:auto;shape-rendering:auto;text-rendering:auto;enable-background:accumulate"
     d="m 4024.0098,181.6582 c 6.1736,6.55361 7.6321,11.74095 7.2832,18.26563 -0.3746,7.0047 -3.7703,15.93381 -9.0586,25.7832 -10.5767,19.69879 -28.7188,41.60987 -31.3438,68.06836 l 0.2832,-1.66992 c -4.7316,19.70379 -14.3994,43.92664 -18.7519,69.13281 -4.3525,25.20617 -2.741,53.13935 17.0449,75.61133 l 3.834,4.35742 5.8027,-0.1543 c 6.2725,-0.16677 10.1985,0.76412 11.9981,1.55469 1.7996,0.79057 1.5103,0.95085 1.5039,0.93555 -0.013,-0.0306 3e-4,3.76668 -3.5078,8.18945 -3.5082,4.42278 -9.3952,8.07474 -13.8282,8.69336 -4.3624,0.60879 -7.5416,0.24908 -12.3691,-6.63476 -24.9784,-43.24573 -25.1996,-97.83546 -12.25,-146.99219 18.2033,-44.75551 26.0734,-92.23014 53.3594,-125.14063 z"
     id="path4219" />
  <path
     style="color:#000000;font-style:normal;font-variant:normal;font-weight:normal;font-stretch:normal;font-size:medium;line-height:normal;font-family:sans-serif;text-indent:0;text-align:start;text-decoration:none;text-decoration-line:none;text-decoration-style:solid;text-decoration-color:#000000;letter-spacing:normal;word-spacing:normal;text-transform:none;direction:ltr;block-progression:tb;writing-mode:lr-tb;baseline-shift:baseline;text-anchor:start;white-space:normal;clip-rule:nonzero;display:inline;overflow:visible;visibility:visible;opacity:1;isolation:auto;mix-blend-mode:normal;color-interpolation:sRGB;color-interpolation-filters:linearRGB;solid-color:#000000;solid-opacity:1;fill:#666666;fill-opacity:1;fill-rule:nonzero;stroke:none;stroke-width:24.80000496;stroke-linecap:butt;stroke-linejoin:miter;stroke-miterlimit:4;stroke-dasharray:none;stroke-dashoffset:0;stroke-opacity:1;color-rendering:auto;image-rendering:auto;shape-rendering:auto;text-rendering:auto;enable-background:accumulate"
     d="m 2931.6035,186.53125 c 5.295,3.00165 5.9316,6.36357 5.9551,12.18359 0.03,7.45945 -4.0064,18.62682 -9.2129,27.81055 l -0.4258,0.75195 -0.3183,0.80274 c -25.7218,65.04223 -52.37,148.10183 -11.834,218.51758 l 1.8984,3.29882 3.4219,1.66602 c 8.5466,4.15882 6.8127,8.86976 5.834,10.66016 -0.1726,0.3157 -0.1651,0.33885 -0.1817,0.40234 -0.084,-0.007 -1.9576,-0.10127 -5.7754,-4.57812 l -0.3945,-0.46094 -0.4375,-0.42188 c -35.5673,-34.27563 -37.5784,-91.20385 -31.2363,-141.82422 4.2302,-25.44772 5.8429,-52.80128 11.8359,-76.52343 5.4859,-21.71461 14.0994,-39.62954 30.8711,-52.28516 z"
     id="path4217" />
  <path
     style="color:#000000;font-style:normal;font-variant:normal;font-weight:normal;font-stretch:normal;font-size:medium;line-height:normal;font-family:sans-serif;text-indent:0;text-align:start;text-decoration:none;text-decoration-line:none;text-decoration-style:solid;text-decoration-color:#000000;letter-spacing:normal;word-spacing:normal;text-transform:none;direction:ltr;block-progression:tb;writing-mode:lr-tb;baseline-shift:baseline;text-anchor:start;white-space:normal;clip-rule:nonzero;display:inline;overflow:visible;visibility:visible;opacity:1;isolation:auto;mix-blend-mode:normal;color-interpolation:sRGB;color-interpolation-filters:linearRGB;solid-color:#000000;solid-opacity:1;fill:#666666;fill-opacity:1;fill-rule:nonzero;stroke:none;stroke-width:24.80000496;stroke-linecap:butt;stroke-linejoin:miter;stroke-miterlimit:4;stroke-dasharray:none;stroke-dashoffset:0;stroke-opacity:1;color-rendering:auto;image-rendering:auto;shape-rendering:auto;text-rendering:auto;enable-background:accumulate"
     d="m 3111.2305,217.76562 c 4.6201,0.77856 7.0877,3.02837 9.0195,6.87891 1.9776,3.94177 2.4932,9.64302 1.1973,14.92969 -16.902,19.16889 -27.4727,43.25306 -28.3243,67.97656 -0.8378,24.32562 8.5379,49.21592 29.5704,67.83984 0.1907,1.64792 0.3053,2.94721 0.2851,3.9043 -0.1436,-0.0378 -0.1061,-0.003 -0.2578,-0.0469 -7.5752,-2.20892 -22.456,-11.89822 -30.4648,-17.82617 l -6.459,-4.78126 -7.0039,3.94336 c -20.8067,11.71824 -32.3683,34.43392 -42.75,57.65625 -10.3818,23.22233 -19.317,47.8919 -29.42,64.50782 l -2.7832,4.57617 1.4258,5.16601 c 0.9965,3.609 0.2596,8.99068 -2.5996,14.5918 -2.8592,5.60112 -7.7286,10.99182 -12.1035,13.9082 -4.3749,2.91639 -7.0855,2.70112 -7.2227,2.64454 -0.1273,-0.0525 -2.1622,-1.16362 -3.3086,-9.07422 7.6866,-42.57415 32.3054,-81.28007 53.4004,-122.95703 21.6008,-23.30488 23.2853,-51.61149 13.4668,-74.56055 -9.7082,-22.69145 -28.2848,-41.58262 -46.5214,-56.37891 -4.7458,-8.08646 -3.9744,-11.41736 -3.629,-12.10937 0.3665,-0.73407 2.2373,-2.43527 7.2618,-2.83789 5.0244,-0.40263 11.8848,1.01306 17.1953,4.08984 5.3105,3.07678 8.9545,7.24772 10.3496,12.82617 l 0.5469,2.1875 1.2812,1.85547 c 4.9758,7.19805 9.5448,12.44645 15.2988,16.11328 5.754,3.66683 14.0907,5.03227 20.5059,2.38867 12.8304,-5.28719 16.01,-16.14597 20.3164,-26.38281 4.3064,-10.23684 8.2264,-21.41415 12.5215,-29.5918 3.6445,-6.9389 7.0345,-10.303 9.2051,-11.4375 z"
     id="path4207" />
  <path
     style="color:#000000;font-style:normal;font-variant:normal;font-weight:normal;font-stretch:normal;font-size:medium;line-height:normal;font-family:sans-serif;text-indent:0;text-align:start;text-decoration:none;text-decoration-line:none;text-decoration-style:solid;text-decoration-color:#000000;letter-spacing:normal;word-spacing:normal;text-transform:none;direction:ltr;block-progression:tb;writing-mode:lr-tb;baseline-shift:baseline;text-anchor:start;white-space:normal;clip-rule:nonzero;display:inline;overflow:visible;visibility:visible;opacity:1;isolation:auto;mix-blend-mode:normal;color-interpolation:sRGB;color-interpolation-filters:linearRGB;solid-color:#000000;solid-opacity:1;fill:#666666;fill-opacity:1;fill-rule:nonzero;stroke:none;stroke-width:24.80000496;stroke-linecap:butt;stroke-linejoin:miter;stroke-miterlimit:4;stroke-dasharray:none;stroke-dashoffset:0;stroke-opacity:1;color-rendering:auto;image-rendering:auto;shape-rendering:auto;text-rendering:auto;enable-background:accumulate"
     d="m 1534.3203,218.25781 c 5.4883,1.18687 8.2533,3.795 9.8145,7.11719 1.8695,3.97837 2.0191,9.87597 -1.6914,16.58789 l -0.211,0.37891 -0.1816,0.39258 c -7.5649,16.2712 -21.6592,35.189 -29.9141,56.59374 -8.2548,21.40475 -8.728,48.08252 11.7774,70.6875 l 0.1914,0.20899 0.1992,0.20117 c 7.6601,7.70531 8.3133,12.34536 8.2324,13.19336 -0.081,0.848 -0.1848,1.53797 -3.748,2.99805 -7.1264,2.92016 -23.6723,1.19852 -31.6856,-6.98438 l -10.6328,-10.85742 -8.5039,12.59375 c -25.8096,38.22258 -46.6267,80.52532 -58.0723,125.93555 l -0.5742,2.27929 0.2988,2.33008 c 1.7148,13.36605 -6.2517,30.48731 -13.3886,35.97656 -3.5685,2.74463 -5.0647,2.83161 -6.9512,2.09766 -1.7377,-0.67604 -5.6815,-3.92705 -9.6387,-12.86914 1.9879,-46.15606 26.3855,-93.73208 49.6016,-138.14844 11.3655,-12.44031 16.982,-25.77795 16.0996,-38.61914 -0.9191,-13.37569 -8.1026,-24.30069 -16.5488,-33.30859 -16.201,-17.27826 -38.7267,-30.47797 -50.8086,-41.36719 -4.5243,-10.56955 -3.2839,-14.81482 -2.8653,-15.42187 0.45,-0.65244 3.3147,-2.44637 10.3418,-1.83985 7.0272,0.60652 16.3757,3.71563 24.1582,8.47071 7.7826,4.75507 13.8221,11.1127 16.1778,16.57617 l 1.5742,3.65039 3.4043,2.05469 c 15.2604,9.21191 31.8243,9.66772 43.082,1.9746 11.2577,-7.69311 16.9945,-19.5202 22.3203,-31.46484 5.3258,-11.94463 9.9025,-24.55958 15.0313,-34.49023 4.2825,-8.29201 8.7993,-13.95224 13.1113,-16.92774 z"
     id="path4205" />
  <path
     style="color:#000000;font-style:normal;font-variant:normal;font-weight:normal;font-stretch:normal;font-size:medium;line-height:normal;font-family:sans-serif;text-indent:0;text-align:start;text-decoration:none;text-decoration-line:none;text-decoration-style:solid;text-decoration-color:#000000;letter-spacing:normal;word-spacing:normal;text-transform:none;direction:ltr;block-progression:tb;writing-mode:lr-tb;baseline-shift:baseline;text-anchor:start;white-space:normal;clip-rule:nonzero;display:inline;overflow:visible;visibility:visible;opacity:1;isolation:auto;mix-blend-mode:normal;color-interpolation:sRGB;color-interpolation-filters:linearRGB;solid-color:#000000;solid-opacity:1;fill:#666666;fill-opacity:1;fill-rule:nonzero;stroke:none;stroke-width:24.80000496;stroke-linecap:butt;stroke-linejoin:miter;stroke-miterlimit:4;stroke-dasharray:none;stroke-dashoffset:0;stroke-opacity:1;color-rendering:auto;image-rendering:auto;shape-rendering:auto;text-rendering:auto;enable-background:accumulate"
     d="m 4190.9941,218.44141 c 1.6642,0.93471 3.1041,2.31092 4.4336,4.21484 2.092,2.99562 3.3419,7.18445 3.4649,11.12305 -13.0946,22.01923 -14.0239,45.63205 -8.2071,66.67382 5.8057,21.00137 17.4702,40.00204 29.3047,57.05665 0.036,0.37472 0.066,0.72116 0.094,1.07226 -4.2603,-2.98762 -9.437,-7.24507 -14.5996,-11.75195 -5.9421,-5.18737 -11.3639,-10.22981 -17.0664,-13.92188 l -6.7266,-4.35547 -6.7324,4.34375 c -19.6357,12.664 -31.0579,34.58988 -41.0332,57.04102 -9.9754,22.45114 -18.3308,46.12305 -27.7168,62.93164 l -1.5664,2.80469 -0.01,3.21289 c -0.018,8.02001 -6.3118,33.43265 -14.2989,46.50781 -3.9935,6.53758 -8.1316,8.76234 -7.8164,8.71875 0.1577,-0.0218 0.6529,0.38792 -0.5664,-0.49219 -0.8862,-0.63967 -2.5283,-2.53696 -4.3672,-5.15429 3.7608,-42.57893 22.7004,-83.29377 41.9336,-124.12305 11.6378,-16.39181 24.0596,-39.01262 27.3711,-62.64258 1.6953,-12.09683 0.8809,-24.80669 -5.0234,-36.25195 -5.9044,-11.44527 -16.9306,-20.73282 -32.002,-26.01758 l -0.3066,-0.10742 -0.3106,-0.0918 c -9.3897,-2.75182 -9.9565,-5.3238 -10.2597,-7.12304 -0.3033,-1.79925 0.8594,-5.87219 4.1601,-9.29493 3.3007,-3.42273 7.907,-5.28276 10.6856,-5.11523 2.7786,0.16753 5.4614,0.70061 9.084,8.89844 l 0.2851,0.64648 0.3555,0.60742 c 3.7871,6.46648 7.3805,11.40142 11.7012,15.26563 4.3206,3.8642 10.1425,6.86844 16.5214,6.58203 6.379,-0.28642 11.4463,-3.68307 14.7969,-7.07617 3.3507,-3.3931 5.6609,-7.09649 7.7891,-10.96094 4.2564,-7.72891 7.6487,-16.34853 11.082,-23.56641 1.9238,-4.04441 3.8846,-7.23604 5.5449,-9.65429 z"
     id="path4203" />
  <path
     style="color:#000000;font-style:normal;font-variant:normal;font-weight:normal;font-stretch:normal;font-size:medium;line-height:normal;font-family:sans-serif;text-indent:0;text-align:start;text-decoration:none;text-decoration-line:none;text-decoration-style:solid;text-decoration-color:#000000;letter-spacing:normal;word-spacing:normal;text-transform:none;direction:ltr;block-progression:tb;writing-mode:lr-tb;baseline-shift:baseline;text-anchor:start;white-space:normal;clip-rule:nonzero;display:inline;overflow:visible;visibility:visible;opacity:1;isolation:auto;mix-blend-mode:normal;color-interpolation:sRGB;color-interpolation-filters:linearRGB;solid-color:#000000;solid-opacity:1;fill:#666666;fill-opacity:1;fill-rule:nonzero;stroke:none;stroke-width:24.80000496;stroke-linecap:butt;stroke-linejoin:miter;stroke-miterlimit:4;stroke-dasharray:none;stroke-dashoffset:0;stroke-opacity:1;color-rendering:auto;image-rendering:auto;shape-rendering:auto;text-rendering:auto;enable-background:accumulate"
     d="m 1911.9023,236.79492 c 5.6979,1.80678 11.4025,4.40849 15.5,7.5625 5.5695,4.28696 8.0511,8.14516 7.8067,14.25196 -5.2552,16.62713 -4.3545,31.51748 3.9726,41.78515 8.702,10.72988 21.7751,13.96438 34.5293,15.0957 23.7931,2.11049 51.0403,-3.12298 66.7364,-4.5957 6.5024,4.13385 7.0675,6.5786 7.0332,7.70117 -0.04,1.2933 -2.1005,5.70994 -8.1348,10.39649 -12.0685,9.3731 -36.7874,16.23086 -46.0977,14.74219 l 1.1348,0.23632 c -13.444,-3.46305 -25.4294,-3.07408 -35.1953,1.65625 -9.7659,4.73033 -16.055,13.2694 -19.8262,22.00782 -6.8269,15.81913 -7.6348,33.39356 -9.0547,47.6582 -6.6163,5.39215 -10.0369,5.87486 -10.3105,5.83008 -0.3187,-0.0522 -2.3054,-1.11399 -5.2461,-6.62305 -2.9407,-5.50906 -5.8604,-13.84332 -9.1055,-22.23047 -3.2451,-8.38715 -6.4572,-16.99052 -13.5039,-24.14844 l -7.0215,-7.13281 -8.455,5.35938 c -7.9422,5.03534 -14.4261,5.06771 -20.836,2.82617 -6.4098,-2.24154 -12.4707,-7.53451 -15.9492,-13.46875 -3.4785,-5.93424 -4.0949,-11.79808 -2.6992,-15.53711 1.2975,-3.47601 4.3603,-7.03823 13.9375,-9.2832 17.654,3.72072 32.3596,1.4507 41.7441,-7.77344 9.9717,-9.80127 11.7725,-22.84605 12.7168,-35.06445 0.9443,-12.21841 0.6549,-24.71281 1.8653,-35.00196 0.8158,-6.93512 2.3286,-12.27487 4.4589,-16.25 z"
     id="path4195" />
  <path
     style="color:#000000;font-style:normal;font-variant:normal;font-weight:normal;font-stretch:normal;font-size:medium;line-height:normal;font-family:sans-serif;text-indent:0;text-align:start;text-decoration:none;text-decoration-line:none;text-decoration-style:solid;text-decoration-color:#000000;letter-spacing:normal;word-spacing:normal;text-transform:none;direction:ltr;block-progression:tb;writing-mode:lr-tb;baseline-shift:baseline;text-anchor:start;white-space:normal;clip-rule:nonzero;display:inline;overflow:visible;visibility:visible;opacity:1;isolation:auto;mix-blend-mode:normal;color-interpolation:sRGB;color-interpolation-filters:linearRGB;solid-color:#000000;solid-opacity:1;fill:#666666;fill-opacity:1;fill-rule:nonzero;stroke:none;stroke-width:24.80000496;stroke-linecap:butt;stroke-linejoin:miter;stroke-miterlimit:4;stroke-dasharray:none;stroke-dashoffset:0;stroke-opacity:1;color-rendering:auto;image-rendering:auto;shape-rendering:auto;text-rendering:auto;enable-background:accumulate"
     d="m 2715.6289,252.50391 c 10.9773,0.36001 14.5747,4.28841 17.1602,11.52734 2.6598,7.44713 1.9621,19.3149 -2.5137,29.7168 -15.6831,25.13365 -16.3004,52.20392 -9.6582,76.38672 6.2422,22.72642 18.1934,43.54157 29.6113,62.27539 -0.2178,0.0895 -0.4588,-0.0148 -0.9219,0.0449 -1.1919,0.15379 -6.2779,-0.87931 -11.8828,-4.54102 -11.2097,-7.32341 -22.6242,-24.15045 -23.2988,-30.76758 l -0.1465,-1.42578 -0.4648,-1.35351 c -2.4643,-7.15574 -5.7752,-13.13855 -10.6172,-17.70313 -4.842,-4.56457 -11.3586,-7.21774 -17.4766,-7.55859 -12.236,-0.68169 -22.0288,5.1238 -31.3984,11.46094 -9.3697,6.33713 -18.3728,14.04859 -26.5508,20.57812 -8.178,6.52953 -15.899,11.73184 -19.5684,13.06836 l -4.1816,1.52149 -2.2578,3.83398 c -11.9356,20.25916 -23.899,57.48722 -39.1699,99.26172 -15.0805,41.25338 -32.797,86.07169 -52.3555,117.74219 -6.1826,6.12245 -11.0948,8.13263 -12.7734,8.30078 -1.7591,0.1762 -1.0608,0.71599 -2.4746,-1.73438 -2.8256,-4.89694 -4.5189,-24.93231 6.9355,-51.91797 2.5403,-5.75708 10.7841,-21.14285 23.4727,-50.92773 12.7201,-29.85915 30.1864,-74.85873 52.4902,-142.84375 l -0.5332,1.35351 c 10.6471,-22.946 5.7845,-51.18127 5.8555,-75.87695 0.035,-12.34784 1.0352,-23.56426 3.789,-31.53125 2.5822,-7.47041 5.9038,-11.82914 12.3418,-14.87305 8.503,-1.0625 13.6178,0.16027 16.7344,1.96875 3.331,1.93291 5.4974,4.81071 7.1387,9.82227 3.2825,10.02313 1.9233,27.5756 -1.9004,41.86328 l -2.7227,10.17383 9.5996,4.33398 c 14.0235,6.32895 29.4101,3.59546 39.3614,-4.4707 9.9512,-8.06615 16.1356,-19.38051 21.746,-31.28906 9.9815,-21.18617 18.9045,-45.4508 26.6309,-56.41992 z"
     id="path4191" />
  <path
     style="color:#000000;font-style:normal;font-variant:normal;font-weight:normal;font-stretch:normal;font-size:medium;line-height:normal;font-family:sans-serif;text-indent:0;text-align:start;text-decoration:none;text-decoration-line:none;text-decoration-style:solid;text-decoration-color:#000000;letter-spacing:normal;word-spacing:normal;text-transform:none;direction:ltr;block-progression:tb;writing-mode:lr-tb;baseline-shift:baseline;text-anchor:start;white-space:normal;clip-rule:nonzero;display:inline;overflow:visible;visibility:visible;opacity:1;isolation:auto;mix-blend-mode:normal;color-interpolation:sRGB;color-interpolation-filters:linearRGB;solid-color:#000000;solid-opacity:1;fill:#666666;fill-opacity:1;fill-rule:nonzero;stroke:none;stroke-width:24.80000496;stroke-linecap:butt;stroke-linejoin:miter;stroke-miterlimit:4;stroke-dasharray:none;stroke-dashoffset:0;stroke-opacity:1;color-rendering:auto;image-rendering:auto;shape-rendering:auto;text-rendering:auto;enable-background:accumulate"
     d="m 170.34766,253.54102 0.002,0 c 7.35531,0.005 12.83178,1.02004 17.80664,4.07421 2.3708,3.82916 3.66914,6.90793 3.96094,8.61524 0.34348,2.00968 0.11955,2.34453 -0.33399,3.12305 -0.90707,1.55704 -6.07896,5.32706 -14.99023,7.81836 -17.82253,4.98259 -44.97518,5.45684 -61.38086,7.98242 l -1.37891,0.21289 -1.29687,0.51367 c -16.007057,6.3335 -47.945563,11.48335 -70.863283,7.96484 -11.45886,-1.75925 -20.256788,-5.64146 -24.658203,-10.21679 -3.773899,-3.92303 -5.678708,-8.54768 -4.386719,-17.26563 14.866564,-9.37859 32.066982,-10.30716 52.449219,-9.41016 21.408318,0.94217 45.392286,4.15507 69.462886,-2.5996 13.5219,1.38897 25.75826,-0.81868 35.60743,-0.8125 z"
     id="path4189" />
  <path
     style="color:#000000;font-style:normal;font-variant:normal;font-weight:normal;font-stretch:normal;font-size:medium;line-height:normal;font-family:sans-serif;text-indent:0;text-align:start;text-decoration:none;text-decoration-line:none;text-decoration-style:solid;text-decoration-color:#000000;letter-spacing:normal;word-spacing:normal;text-transform:none;direction:ltr;block-progression:tb;writing-mode:lr-tb;baseline-shift:baseline;text-anchor:start;white-space:normal;clip-rule:nonzero;display:inline;overflow:visible;visibility:visible;opacity:1;isolation:auto;mix-blend-mode:normal;color-interpolation:sRGB;color-interpolation-filters:linearRGB;solid-color:#000000;solid-opacity:1;fill:#666666;fill-opacity:1;fill-rule:nonzero;stroke:none;stroke-width:24.80000496;stroke-linecap:butt;stroke-linejoin:miter;stroke-miterlimit:4;stroke-dasharray:none;stroke-dashoffset:0;stroke-opacity:1;color-rendering:auto;image-rendering:auto;shape-rendering:auto;text-rendering:auto;enable-background:accumulate"
     d="m 1080.5469,265.13672 c 10.3997,-0.0881 15.8115,3.62265 19.3906,9.62109 3.6265,6.07795 4.8542,15.57733 1.4434,26.36719 -18.8714,49.92038 -37.3322,112.05327 -5.795,166.70508 l 1.6094,2.79101 2.7637,1.65235 c 10.3425,6.18758 11.2831,15.1105 9.8086,19.07422 -0.7373,1.98185 -1.4508,2.70083 -3.2461,3.20898 -1.7953,0.50815 -5.7407,0.66181 -12.4649,-2.91602 l -2.7246,-1.44921 -3.0859,-0.004 c -7.2738,-0.008 -8.6167,-1.59779 -11.3652,-5.91992 -2.7486,-4.32213 -4.9596,-12.10506 -7.1446,-20.48438 -2.185,-8.37931 -3.7147,-17.75207 -11.8925,-25.7207 -4.089,-3.98432 -10.4722,-6.79893 -16.8047,-6.86914 -6.3326,-0.0702 -12.3626,1.87848 -18.8223,5.11328 l -3.2227,1.61524 -1.8574,3.08984 c -19.60011,32.64961 -52.73731,51.98255 -91.21092,60.83789 l -6.99805,1.61133 -2.08593,6.87109 c -13.70147,45.13933 -28.16974,89.87368 -45.72266,133.20117 l -0.44922,1.10742 -0.22851,1.17188 c -6.31678,32.34841 -15.31736,51.93683 -23.11329,61.79883 -7.79592,9.86199 -12.34185,9.88619 -15.23828,9.08984 -5.79285,-1.59269 -15.31373,-18.28175 -3.05664,-35.87695 l 6.05274,-8.6875 -1.87891,-1.80664 c 42.7665,-93.61914 75.34713,-191.9384 93.56445,-293.70313 l 0.43946,-2.45703 -0.54297,-2.43359 c -3.28883,-14.7117 -0.29066,-40.31203 8.06641,-55.28906 4.17853,-7.48852 9.10893,-11.96813 13.95507,-13.57618 4.57255,-1.51726 10.3919,-1.29742 19.55078,4.04297 4.6271,5.59958 6.21467,10.43417 6.4336,16.04688 0.23724,6.08246 -1.50118,13.35739 -4.61719,21.47461 -6.20873,16.17378 -17.99259,34.47855 -21.04492,55.64062 -1.374,7.93724 -1.74187,14.62233 -0.73633,20.77344 1.01317,6.19779 3.78083,12.36224 8.98242,16.39062 5.20159,4.02839 11.72105,4.94358 17.03516,4.32032 5.31411,-0.62326 10.01585,-2.47387 14.5625,-4.85352 9.0933,-4.75931 17.65453,-11.89311 25.01363,-19.86523 6.5893,-7.13816 12.0763,-14.72436 15.3379,-23.10547 19.5498,-20.93539 25.8441,-46.73124 31.0371,-70.1875 4.9307,-22.27083 9.2814,-42.50493 20.3028,-58.41211 z"
     id="path4185" />
  <path
     style="color:#000000;font-style:normal;font-variant:normal;font-weight:normal;font-stretch:normal;font-size:medium;line-height:normal;font-family:sans-serif;text-indent:0;text-align:start;text-decoration:none;text-decoration-line:none;text-decoration-style:solid;text-decoration-color:#000000;letter-spacing:normal;word-spacing:normal;text-transform:none;direction:ltr;block-progression:tb;writing-mode:lr-tb;baseline-shift:baseline;text-anchor:start;white-space:normal;clip-rule:nonzero;display:inline;overflow:visible;visibility:visible;opacity:1;isolation:auto;mix-blend-mode:normal;color-interpolation:sRGB;color-interpolation-filters:linearRGB;solid-color:#000000;solid-opacity:1;fill:#666666;fill-opacity:1;fill-rule:nonzero;stroke:none;stroke-width:24.80000496;stroke-linecap:butt;stroke-linejoin:miter;stroke-miterlimit:4;stroke-dasharray:none;stroke-dashoffset:0;stroke-opacity:1;color-rendering:auto;image-rendering:auto;shape-rendering:auto;text-rendering:auto;enable-background:accumulate"
     d="m 3445.9551,293.68359 c 0.03,0.007 0.018,0.014 0.047,0.0215 -0.017,-0.004 -0.032,-0.006 -0.049,-0.01 l 0,-0.0117 z"
     id="path4183" />
  <path
     style="color:#000000;font-style:normal;font-variant:normal;font-weight:normal;font-stretch:normal;font-size:medium;line-height:normal;font-family:sans-serif;text-indent:0;text-align:start;text-decoration:none;text-decoration-line:none;text-decoration-style:solid;text-decoration-color:#000000;letter-spacing:normal;word-spacing:normal;text-transform:none;direction:ltr;block-progression:tb;writing-mode:lr-tb;baseline-shift:baseline;text-anchor:start;white-space:normal;clip-rule:nonzero;display:inline;overflow:visible;visibility:visible;opacity:1;isolation:auto;mix-blend-mode:normal;color-interpolation:sRGB;color-interpolation-filters:linearRGB;solid-color:#000000;solid-opacity:1;fill:#666666;fill-opacity:1;fill-rule:nonzero;stroke:none;stroke-width:24.80000496;stroke-linecap:butt;stroke-linejoin:miter;stroke-miterlimit:4;stroke-dasharray:none;stroke-dashoffset:0;stroke-opacity:1;color-rendering:auto;image-rendering:auto;shape-rendering:auto;text-rendering:auto;enable-background:accumulate"
     d="m 537.47442,367.93164 0.008,0 c 11.909,0.008 31.31185,2.59616 40.08203,6.42578 1.21186,0.52918 1.3799,0.74888 1.94727,1.1211 -0.78303,0.83897 -1.93676,1.8602 -3.43555,3.0664 -23.83536,10.39178 -55.47395,7.98905 -87.74219,14.05469 -85.78723,11.80873 -175.54906,16.53744 -260.58593,46.89453 l -3.58789,1.28125 -2.25,3.07422 c -4.9945,6.8259 -11.33399,9.5282 -19.1543,9.94727 -7.82031,0.41906 -16.81053,-2.18045 -23.5293,-6.48633 -6.71876,-4.30589 -10.60213,-9.95722 -11.27734,-14.10743 -0.63369,-3.89502 0.18083,-8.11155 7.72851,-14.40429 C 287.18538,380.4942 407.48305,371.79941 526.43164,368.75 l 1.18164,-0.0312 1.1543,-0.25195 c 0.55858,-0.12247 4.29151,-0.53442 8.70703,-0.53516 z"
     id="path4179" />
  <path
     style="color:#000000;font-style:normal;font-variant:normal;font-weight:normal;font-stretch:normal;font-size:medium;line-height:normal;font-family:sans-serif;text-indent:0;text-align:start;text-decoration:none;text-decoration-line:none;text-decoration-style:solid;text-decoration-color:#000000;letter-spacing:normal;word-spacing:normal;text-transform:none;direction:ltr;block-progression:tb;writing-mode:lr-tb;baseline-shift:baseline;text-anchor:start;white-space:normal;clip-rule:nonzero;display:inline;overflow:visible;visibility:visible;opacity:1;isolation:auto;mix-blend-mode:normal;color-interpolation:sRGB;color-interpolation-filters:linearRGB;solid-color:#000000;solid-opacity:1;fill:#666666;fill-opacity:1;fill-rule:nonzero;stroke:none;stroke-width:24.80000496;stroke-linecap:butt;stroke-linejoin:miter;stroke-miterlimit:4;stroke-dasharray:none;stroke-dashoffset:0;stroke-opacity:1;color-rendering:auto;image-rendering:auto;shape-rendering:auto;text-rendering:auto;enable-background:accumulate"
     d="m 438.40997,517.84766 c 12.65672,0.49198 25.04101,3.98186 34.31836,10.85937 8.21891,8.94532 10.22629,16.12155 9.625,23.85547 -0.61987,7.97276 -4.84389,17.24475 -11.87305,26.87891 -14.05832,19.26831 -10.4844,8.32392 -26.50755,24.38295 l -28.62906,26.15095 -14.93753,12.96979 c -7.74287,7.81666 -48.63514,38.479 -44.00485,42.25201 4.63029,3.77301 64.58912,-9.8385 69.66295,-10.81274 18.90361,-3.62972 31.42613,-7.24762 42.40432,-8.65585 11.09315,-1.42298 22.4775,-3.45709 32.39648,-4.44922 9.91899,-0.99214 18.40437,-0.6271 22.14844,0.63281 l 1.81055,0.60937 1.91016,0.0371 c 13.65459,0.25859 17.09634,3.89475 17.49414,4.59375 0.39779,0.699 0.70817,3.32109 -2.54102,8.15039 -3.24919,4.82931 -9.53519,10.03161 -16.0957,12.51954 -6.56052,2.48792 -12.72901,2.63076 -18.57422,-0.50586 l -3.72852,-2.00196 -4.17383,0.69727 c -29.90329,3.9912 -137.2395,30.41767 -127.44796,25.80458 l -15.54085,2.29009 c -11.03846,-0.75401 0,0 -16.89475,-1.38685 -9.35289,-0.76776 -17.30445,-0.31316 -23.21361,-3.48745 -9.738,-5.23108 -13.01661,-7.98063 -17.40298,-19.70209 0.5499,-16.53581 -2.27141,-21.27255 17.32437,-32.87375 20.02979,-11.85814 37.10526,-26.46378 60.96485,-43.79492 2.13597,-1.9283 35.66148,-25.61906 38.92821,-29.93651 6.49845,-8.58862 23.24375,-16.09262 21.53707,-28.06306 -0.76152,-5.34122 -21.58079,-6.61202 -46.20885,0.3745 -36.79746,10.43875 -43.18039,28.18386 -51.12557,25.77546 -7.94519,-2.4084 -14.20747,-6.08188 -15.73633,-8.0332 -0.76443,-0.97567 -0.83429,-1.11946 -0.79883,-2.29102 0.0355,-1.17156 0.57811,-3.76278 3.14648,-7.875 l 0.0508,-0.082 0.0508,-0.084 c 10.48636,-17.39087 26.80858,-26.49209 47.18359,-32.57617 19.8629,-5.93116 42.87727,-8.36961 64.47852,-12.22265 z"
     id="path4445"
     inkscape:connector-curvature="0"
     sodipodi:nodetypes="ccsscccsssscccssscccccsscscsssssccccscc" />
  <path
     style="opacity:1;fill:#666666;fill-opacity:1;fill-rule:evenodd;stroke:none;stroke-width:8.3;stroke-miterlimit:4;stroke-dasharray:none;stroke-opacity:1"
     id="path4291"
     d="m 3421.7466,291.75517 c 7.0449,-0.71766 14.1227,-1.05492 21.1997,-1.22851 8.2628,-0.19455 16.5291,-0.20286 24.7938,-0.27729 5.6777,-0.0766 11.3555,-0.0725 17.0335,-0.067 5.5684,0.47197 10.97,-0.46927 16.4607,-1.15184 6.3346,-1.04602 12.1607,-3.74856 18.3173,-5.42977 3.7555,-0.93876 7.6035,-1.2412 11.4465,-1.54762 0,0 -25.6158,19.02931 -25.6158,19.02931 l 0,0 c -3.7953,0.50561 -7.6006,0.99197 -11.2687,2.14907 -6.1764,1.99415 -12.2692,4.3414 -18.7623,5.12391 -5.5666,0.76535 -11.1294,1.03547 -16.7511,0.84002 -5.6034,-0.003 -11.2064,-0.0154 -16.8095,-0.0867 -8.1911,-0.0504 -16.3835,-0.0322 -24.571,0.24926 -7.2181,0.33478 -14.505,0.58053 -21.5815,2.16506 0,0 26.1084,-19.76784 26.1084,-19.76784 z"
     inkscape:connector-curvature="0" />
  <path
     style="opacity:1;fill:#666666;fill-opacity:1;fill-rule:evenodd;stroke:none;stroke-width:9;stroke-miterlimit:4;stroke-dasharray:none;stroke-opacity:1"
     id="path4293"
     d="m 3415.4974,343.63005 c 5.44,1.43343 10.9049,2.63431 16.4905,3.36073 6.6649,0.66858 13.3744,0.71655 20.0665,0.79661 7.9131,0.0767 15.8262,-0.0442 23.7393,-0.0668 5.1538,-0.0471 10.307,-0.11666 15.4611,-0.12907 3.7726,-0.0297 7.545,-0.0338 11.3177,-0.0213 0.657,0.002 1.3139,0.004 1.9708,0.006 0,0 -26.3426,19.13901 -26.3426,19.13901 l 0,0 c -0.6627,0.002 -1.3254,0.004 -1.9881,0.006 -3.7533,0.0123 -7.5063,0.008 -11.2595,-0.0195 -5.0461,-0.009 -10.0914,-0.0689 -15.1373,-0.10238 -7.8645,-0.002 -15.7289,-0.0851 -23.5934,-0.0735 -6.8883,-0.02 -13.8059,0.0508 -20.6418,-0.93881 -5.6791,-0.94963 -11.2561,-2.38785 -16.9515,-3.23549 0,0 26.8683,-18.72196 26.8683,-18.72196 z"
     inkscape:connector-curvature="0" />
</svg>
