<?xml version="1.0" encoding="UTF-8" standalone="no"?>
<!-- Created with Inkscape (http://www.inkscape.org/) -->

<svg
   xmlns:dc="http://purl.org/dc/elements/1.1/"
   xmlns:cc="http://creativecommons.org/ns#"
   xmlns:rdf="http://www.w3.org/1999/02/22-rdf-syntax-ns#"
   xmlns:svg="http://www.w3.org/2000/svg"
   xmlns="http://www.w3.org/2000/svg"
   xmlns:sodipodi="http://sodipodi.sourceforge.net/DTD/sodipodi-0.dtd"
   xmlns:inkscape="http://www.inkscape.org/namespaces/inkscape"
   id="svg2"
   version="1.1"
   inkscape:version="0.91 r13725"
   width="4351.959"
   height="972.00623"
   viewBox="0 0 4351.959 972.00621"
   sodipodi:docname="dl60grey.svg">
  <metadata
     id="metadata8">
    <rdf:RDF>
      <cc:Work
         rdf:about="">
        <dc:format>image/svg+xml</dc:format>
        <dc:type
           rdf:resource="http://purl.org/dc/dcmitype/StillImage" />
        <dc:title></dc:title>
      </cc:Work>
    </rdf:RDF>
  </metadata>
  <defs
     id="defs6" />
  <sodipodi:namedview
     pagecolor="#ffffff"
     bordercolor="#666666"
     borderopacity="1"
     objecttolerance="10"
     gridtolerance="10"
     guidetolerance="10"
     inkscape:pageopacity="0"
     inkscape:pageshadow="2"
     inkscape:window-width="1287"
     inkscape:window-height="744"
     id="namedview4"
     showgrid="false"
     inkscape:zoom="0.32"
     inkscape:cx="817.10138"
     inkscape:cy="409.97697"
     inkscape:window-x="81"
     inkscape:window-y="24"
     inkscape:window-maximized="1"
     inkscape:current-layer="svg2"
     fit-margin-top="0"
     fit-margin-left="0"
     fit-margin-right="0"
     fit-margin-bottom="0" />
  <path
     style="fill:#666666"
     d="m 497.9957,0 c -42.597,35.34865 -73.86503,86.2003 -127.27929,107.03515 -41.73315,30.53195 23.72376,99.49067 52.18359,49.08985 11.74006,-17.65199 41.73963,-25.82383 25.0332,5.62304 12.96348,55.36975 -37.28235,88.19706 -85.63086,81.23828 -34.16164,39.96358 39.24711,69.92328 72.86133,55.76168 35.37559,-9.6764 97.88516,-4.4185 110.83594,-41.41597 C 514.77034,239.17092 473.0465,224.87487 500.10508,181.41015 510.28136,131.7343 532.05096,84.43256 539.21445,34.45508 536.23392,14.89312 516.62367,1.78762 497.9957,0 Z m 3294.9629,76.95898 c -38.4182,34.02094 -40.0898,89.55275 -58.6817,134.38477 -11.5358,44.5673 -18.7674,90.07905 -26.3105,135.44725 -32.4324,17.9027 -114.4064,-26.2576 -107.1309,35.4727 19.8441,53.0608 118.1256,-11.7619 102.6778,61.8027 -2.144,50.9543 -8.0144,102.3618 -20.6934,151.7891 -11.7664,37.6656 -31.2264,72.4143 -53.1445,105.041 -0.051,50.5949 72.6917,23.441 66.7129,-16.086 41.4696,-79.6403 47.5247,-171.4633 48.2343,-259.6171 21.4506,-50.1734 89.6469,-17.8255 130.3458,-19.8262 51.8078,-23.0628 -9.8242,-78.3085 -47.8243,-56.3926 -32.9697,8.433 -89.6011,7.5349 -67.1699,-41.0879 5.6737,-35.83439 11.6257,-73.57973 32.9766,-103.89061 56.9221,11.86899 40.6493,-73.06567 27.459,-105.0293 -4.9463,-11.02011 -14.4975,-21.6697 -27.4512,-22.00781 z m -1448.75,4.89844 c -43.8692,6.45237 -97.4989,-7.09896 -131.5352,28.33984 -30.5533,35.14681 42.9763,82.89329 58.8321,35.48242 32.708,5.93047 8.5905,60.57086 21.3066,84.8711 -1.5012,54.56102 -2.4911,109.55272 -6.7344,163.77152 -12.146,24.9105 -8.728,100.4983 30.8418,72.4804 23.7501,-45.1887 8.7288,-97.9724 15.1192,-146.625 2.1278,-50.86123 7.7014,-101.91605 2.3222,-152.76559 -36.0009,-28.72968 2.5207,-37.69402 29.4297,-30.84961 36.8996,0.25496 86.3915,-7.69499 108.0684,30.21484 12.1952,49.96156 -10.6001,101.5705 -20.9883,150.42576 -39.1652,127.2897 -129.1491,231.3956 -229.7383,315.3887 -52.6701,48.8337 -115.004,96.8853 -137.0605,168.0488 -17.1671,26.7746 18.2242,89.3927 35.0429,39.1973 15.7411,-48.7848 47.2447,-89.739 85.7481,-122.7695 89.9361,-85.7905 193.8232,-164.2496 247.0586,-280.1329 42.284,-84.6454 70.5094,-179.50722 65.084,-274.77339 -9.3845,-53.77353 -66.0643,-79.66266 -115.9512,-78.11524 -18.9057,-1.57294 -37.885,-1.93147 -56.8457,-2.18945 z m 865.2871,67.83008 c -47.1608,36.57177 22.7359,78.0974 34.1211,115.31445 20.9074,49.11825 16.7657,107.55385 -12.0488,152.61915 -9.6364,45.0424 60.0948,24.0095 50.1933,-12.5313 29.0142,-83.4794 -7.2148,-172.34151 -50.5898,-243.60738 -5.4134,-6.42514 -13.1318,-11.25032 -21.6758,-11.79492 z m -1580.8203,0.25586 c -56.241,21.34206 12.6453,70.63939 24.2168,101.40039 21.7391,52.93885 34.0855,110.74385 34.791,167.75395 0.1779,35.6814 -81.1226,79.7929 -21.3945,98.6171 56.7525,-3.0804 65.8295,-69.6942 62.0566,-114.7441 -5.5682,-68.5914 -26.3861,-135.58039 -52.8652,-198.76758 -9.9042,-21.88475 -23.5096,-44.73537 -46.8047,-54.25976 z m 2666.25,3.25976 c -17.5871,45.67856 25.0546,88.27202 16.7519,135.35938 6.8916,53.0195 18.0698,108.6365 0.037,160.7285 -38.8834,12.9516 -12.4169,93.6308 18.8985,45.5684 40.4684,-69.3239 11.3815,-150.9564 9.1328,-225.56058 -7.0691,-36.38657 -1.1516,-103.36369 -44.8203,-116.0957 z m -3041.2266,7.16211 c -38.8279,42.02733 -32.5845,105.31252 -56.6406,154.93947 -17.8179,67.3292 -21.7514,143.1054 14.3887,205.1855 23.1904,53.5749 95.9224,-27.4516 29.1992,-36.8008 -22.7901,-35.3239 -11.3192,-81.2287 -7.5567,-120.4042 7.922,-51.9535 27.0316,-100.98702 49.7227,-147.95708 8.8868,-22.7728 -2.2521,-52.68013 -29.1133,-54.96289 z m 2766.6446,6.75195 c -35.444,36.90656 -42.7783,90.31598 -61.5801,136.06642 -13.7016,51.6695 -13.8913,110.0587 13.7011,157.3672 28.308,41.1604 86.5156,-33.4954 26.3086,-31.8946 -33.5131,-38.0627 -5.6568,-91.5393 4.4571,-133.6562 4.1294,-41.62223 66.2734,-86.31292 28.2207,-123.61133 l -5.2813,-2.78516 z m -1090.1543,5.22266 c -47.3948,29.71494 -45.3483,92.3024 -53.5957,141.45896 -6.5164,52.012 -5.2641,113.5552 34.9355,152.2949 22.4618,26.3394 42.6055,-12.2411 14.9844,-25.6816 -37.1919,-64.6067 -12.8246,-143.4324 12.6191,-207.77148 11.6339,-20.52099 20.2148,-49.98015 -8.9433,-60.30078 z m 1256.4296,32.31836 c -18.9708,13.8003 -25.2121,83.2816 -52.3593,36.92773 -19.7561,-44.70783 -77.5078,15.18381 -28.4981,29.54688 51.0485,17.90009 24.9261,76.61769 2.8672,107.22269 -19.923,42.2923 -40.7597,85.8778 -43.8594,133.2675 26.7618,46.3567 52.2106,-28.1567 52.2657,-52.7089 20.4488,-36.6198 33.2649,-95.3595 64.6445,-115.5977 16.2113,10.4959 57.057,58.8194 50.3711,9.8945 -24.3755,-34.6656 -47.1287,-76.1404 -20.7988,-116.07028 1.3869,-15.06063 -8.2602,-31.66689 -24.6329,-32.48242 z m -1076.6093,0.39648 c -32.2233,6.17861 -30.7945,106.11532 -66.4258,54.57032 -9.2624,-37.03664 -81.2513,-36.00908 -52.9766,8.98632 35.9129,28.57428 72.9921,74.87168 32.418,116.14068 -21.0899,41.8827 -47.6562,82.4518 -55.6055,129.4843 5.2963,48.6315 58.1616,5.241 49.7989,-25.0469 22.3492,-36.7568 35.483,-99.6787 67.6601,-117.8007 16.587,12.2773 58.5974,41.1726 49.4199,-2.2344 -41.9743,-33.2005 -34.2681,-88.6918 -1.5332,-123.74219 6.0023,-17.67009 -2.2342,-39.08696 -22.7558,-40.35743 z m -1578.0957,0.23438 c -37.2321,16.20192 -33.3542,114.27494 -84.7305,83.26174 -15.2051,-35.26449 -96.6987,-52.91976 -69.543,4.6191 27.4074,26.3078 94.4583,53.7127 51.2656,98.7793 -23.8374,45.5923 -50.5763,96.0473 -51.8105,147.5703 20.0538,50.8001 59.5234,7.461 54.8223,-29.1836 11.0198,-43.7211 31.1619,-84.7605 56.3261,-122.0273 24.4712,24.9891 81.2383,9.9725 44.8555,-26.625 -35.2118,-38.8173 3.4299,-77.6601 20.1953,-113.72071 10.6835,-19.32509 1.9451,-40.74639 -21.3808,-42.67383 z m 375.1875,17.45898 c -30.3104,27.38122 12.0475,112.39726 -56.3028,95.41406 -57.2896,10.9237 -11.1912,86.3621 32.5059,58.6582 17.5083,17.7846 17.572,83.3507 58.8164,44.7402 3.7713,-31.3205 2.8406,-77.516 49.1699,-65.582 30.8719,4.9363 100.1987,-31.4974 52.082,-57.8594 -33.8167,2.0719 -117.1,23.875 -95.7714,-37.68551 1.8081,-22.34635 -22.0037,-34.1635 -40.5,-37.68555 z m 807.5683,17.24219 c -1.5886,-0.0127 -3.2414,0.0536 -4.959,0.20313 -25.7165,25.59622 -33.8584,112.53084 -76.7187,93.18754 8.392,-31.3576 8.6668,-76.13118 -37.5195,-68.95122 -42.8756,17.87712 -10.6768,76.21462 -26.5411,110.40432 -29.916,123.1744 -73.7316,244.8516 -76.5546,372.7695 -9.54,23.221 20.5231,90.9878 36.5878,43.082 7.6889,-85.1008 18.2112,-170.485 45.2286,-251.9023 9.9036,-38.4083 17.5715,-78.3246 37.9531,-112.9199 26.8595,-9.7832 73.4541,-74.4679 89.6426,-27.459 2.7706,27.1756 53.5203,68.4 61.9511,32.4043 -24.3295,-39.5997 -51.3856,-87.0052 -22.1816,-131.8574 11.3048,-25.8854 5.4141,-58.70225 -26.8887,-58.96097 z m -2544.31247,1.15039 c -12.21319,-0.008 -24.93955,2.41829 -36.76758,0.72266 C 90.618412,255.20455 39.882894,230.01374 1.4937546,259.00781 -12.849576,318.5924 79.897508,312.2086 117.29844,297.4102 c 28.3601,-4.3659 112.54042,-1.5083 79.96094,-48.74614 -8.2151,-6.03789 -17.4032,-7.5169 -26.90235,-7.52344 z M 3462.5875,249 c -29.1179,0.46093 -35.6954,52.8992 -19.5,56.748 -54.0712,-13.9803 -25.1075,78.3957 18.3769,49.67 30.3447,2.3395 59.0727,-51.4816 14.0059,-51.5332 43.4706,-5.2258 61.468,-59.71381 3.2207,-50.49418 -5.9708,-3.14875 -11.3388,-4.46605 -16.1035,-4.39062 z m -2382.7109,3.70508 c -1.9223,0.0375 -3.9145,0.19166 -5.9747,0.46874 -31.5414,38.86958 -18.7141,97.00838 -55.3496,133.92778 -8.1535,26.0042 -67.271,71.9994 -57.3066,14.9394 4.874,-34.5711 44.4508,-72.2551 15.125,-104.8144 -49.2205,-30.76674 -70.08528,40.1737 -61.80468,77.2148 -27.6875,154.6667 -88.72997,301.7079 -169.12696,436.166 -22.99031,43.8824 -44.28573,92.6917 -37.63867,143.4043 21.58145,46.3885 71.93101,-7.8381 51.26172,-40.0703 23.01455,-96.2933 90.88343,-173.1298 123.54883,-265.752 17.7774,-43.8816 32.3512,-88.9747 46.0957,-134.2558 40.8387,-9.3997 77.38986,-30.4372 99.06246,-66.5391 42.9244,-21.4951 16.8389,55.1453 60.4629,55.1934 34.8367,18.5361 47.5525,-23.3309 18.0938,-40.9551 -28.508,-49.4023 -11.8113,-107.3992 6.8593,-156.6914 8.6472,-27.2195 -4.4745,-52.79863 -33.3085,-52.23632 z M 537.48203,355.5312 c -4.90547,0 -8.93069,0.2877 -11.36914,0.8223 -120.11842,3.0794 -242.53384,11.7925 -356.72461,51.4629 -45.87995,35.5797 33.42983,83.1253 62.5293,43.3555 82.79455,-29.5566 171.63245,-34.3857 258.10742,-46.2891 30.5296,-5.8458 64.21067,-2.5614 92.45117,-15.5312 33.63688,-25.2094 -18.50457,-33.8048 -44.99414,-33.8204 z M 437.87852,505.373 c -42.63723,7.7861 -96.76332,9.4325 -121.75,50.8711 -26.96056,43.1664 63.79073,38.5706 51.99218,47.8653 -29.94414,36.8371 -90.40265,44.2791 -106.94336,91.664 0.66732,58.2541 70.28309,50.666 106.91407,30.9043 43.63483,-12.5475 88.31723,-20.9773 133.0625,-28.4355 37.62855,20.192 89.29046,-46.8799 25.81445,-48.082 -28.33265,-9.5342 -98.08222,20.7628 -101.83984,-7.4708 29.98355,-30.0507 99.02248,-78.0116 55.93359,-123.3261 -12.24174,-9.4656 -27.92252,-13.5648 -43.18359,-13.9903 z"
     id="path4445"
     inkscape:connector-curvature="0"
     sodipodi:nodetypes="ccccccccccccccccccccccccccccccccccccccccccccccccccccccccccccccccccccccccccccccccccccccccccccccccccccccccccccccccccccccccccscccccccccccssccccssccccsccccccccccccccccccccccccccccccccc" />
</svg>
