<?xml version="1.0" encoding="UTF-8" standalone="no"?>
<!-- Created with Inkscape (http://www.inkscape.org/) -->

<svg
   xmlns:dc="http://purl.org/dc/elements/1.1/"
   xmlns:cc="http://creativecommons.org/ns#"
   xmlns:rdf="http://www.w3.org/1999/02/22-rdf-syntax-ns#"
   xmlns:svg="http://www.w3.org/2000/svg"
   xmlns="http://www.w3.org/2000/svg"
   xmlns:sodipodi="http://sodipodi.sourceforge.net/DTD/sodipodi-0.dtd"
   xmlns:inkscape="http://www.inkscape.org/namespaces/inkscape"
   id="svg2"
   version="1.1"
   inkscape:version="0.91 r13725"
   width="4351.959"
   height="858.75"
   viewBox="0 0 4351.959 858.74999"
   sodipodi:docname="dl60gray.svg">
  <metadata
     id="metadata8">
    <rdf:RDF>
      <cc:Work
         rdf:about="">
        <dc:format>image/svg+xml</dc:format>
        <dc:type
           rdf:resource="http://purl.org/dc/dcmitype/StillImage" />
        <dc:title></dc:title>
      </cc:Work>
    </rdf:RDF>
  </metadata>
  <defs
     id="defs6" />
  <sodipodi:namedview
     pagecolor="#ffffff"
     bordercolor="#666666"
     borderopacity="1"
     objecttolerance="10"
     gridtolerance="10"
     guidetolerance="10"
     inkscape:pageopacity="0"
     inkscape:pageshadow="2"
     inkscape:window-width="1287"
     inkscape:window-height="744"
     id="namedview4"
     showgrid="false"
     inkscape:zoom="0.16"
     inkscape:cx="2007.262"
     inkscape:cy="108.78148"
     inkscape:window-x="81"
     inkscape:window-y="24"
     inkscape:window-maximized="1"
     inkscape:current-layer="svg2"
     fit-margin-top="0"
     fit-margin-left="0"
     fit-margin-right="0"
     fit-margin-bottom="0" />
  <path
     style="fill:#666666"
     d="m 497.9957,0 c -42.597,35.34865 -73.86503,86.200298 -127.27929,107.03516 -41.73315,30.53195 23.72376,99.49066 52.18359,49.08984 11.74006,-17.65199 44.86463,-52.38632 31.2832,5.62305 5.15098,70.99475 -43.53235,88.19706 -91.88086,81.23828 -34.16164,39.96358 39.24711,69.92332 72.86133,55.76172 35.37559,-9.6764 97.88516,-4.41855 110.83594,-41.41602 4.69786,-38.76805 -41.27479,-14.06984 -48.51615,-23.97989 -7.24135,-9.91005 -0.75142,-27.86587 2.62162,-73.81698 C 507.15636,97.35931 532.05096,84.432558 539.21445,34.455078 536.23392,14.893118 516.62367,1.78762 497.9957,0 Z m 3294.9629,76.958984 c -38.4182,34.020936 -40.0898,89.552746 -58.6817,134.384766 -11.5358,44.5673 -18.7674,90.07907 -26.3105,135.44727 -32.4324,17.9027 -114.4064,-26.25765 -107.1309,35.47265 19.8441,53.0608 118.1256,-11.76186 102.6778,61.80274 -2.144,50.9543 -8.0144,102.36176 -20.6934,151.78906 -11.7664,37.6656 -31.2264,72.41431 -53.1445,105.04101 -0.051,50.5949 72.6917,23.44107 66.7129,-16.08593 41.4696,-79.6403 47.5247,-171.46339 48.2343,-259.61719 21.4506,-50.1734 89.6469,-17.82547 130.3458,-19.82617 51.8078,-23.0628 -9.8242,-78.30848 -47.8243,-56.39258 -32.9697,8.433 -89.6011,7.53491 -67.1699,-41.08789 5.6737,-35.83439 11.6257,-73.57975 32.9766,-103.89063 56.9221,11.86899 40.6493,-73.06566 27.459,-105.029293 -4.9463,-11.02011 -14.4975,-21.669703 -27.4512,-22.007813 z M 2289.6558,166.86346 c -0.3514,17.43894 -3.2017,51.5372 3.1563,63.68732 -1.5012,54.56102 -2.4911,109.55269 -6.7344,163.77149 -12.146,24.9105 -8.728,100.49836 30.8418,72.48046 23.7501,-45.1887 8.7288,-97.9724 15.1192,-146.625 2.1278,-50.86123 4.3868,-109.65006 3.4271,-154.97533 -15.27,-9.39 -31.6449,-14.36058 -45.81,1.66106 z m 182.2032,-5.61039 c 12.1952,49.96156 -10.6001,107.09481 -20.9883,155.95005 -39.1652,127.2897 -129.1491,231.39558 -229.7383,315.38868 -52.6701,48.8337 -115.004,96.88532 -137.0605,168.04882 -17.1671,26.7746 18.2242,89.39267 35.0429,39.19727 15.7411,-48.7848 47.2447,-89.73903 85.7481,-122.76953 89.9361,-85.7905 193.8232,-164.24951 247.0586,-280.13281 42.284,-84.6454 70.5094,-179.50727 65.084,-274.77344 -9.3845,-53.77353 -66.0643,-79.662655 -115.9512,-78.115235 -18.9057,-1.57294 -37.885,-1.931473 -56.8457,-2.189453 -43.8692,6.45237 -97.4989,-7.098964 -131.5352,28.339848 -30.5533,35.14681 42.9763,77.36902 58.8321,29.95815 0,0 44.6692,-15.25159 92.0479,-14.71591 47.3788,0.53569 97.4672,16.85864 108.3056,35.81356 z m 737.6367,-11.56557 c -47.1608,36.57177 22.7359,78.0974 34.1211,115.31445 20.9074,49.11825 16.7657,107.55384 -12.0488,152.61914 -9.6364,45.0424 60.0948,24.00955 50.1933,-12.53125 29.0142,-83.4794 -7.2148,-172.34155 -50.5898,-243.60742 -5.4134,-6.42514 -13.1318,-11.25032 -21.6758,-11.79492 z m -1580.8203,0.25586 c -56.241,21.34206 12.6453,70.63939 24.2168,101.40039 21.7391,52.93885 34.0855,110.74381 34.791,167.75391 0.1779,35.6814 -81.1226,79.79298 -21.3945,98.61718 56.7525,-3.0804 65.8295,-69.69424 62.0566,-114.74414 -5.5682,-68.5914 -26.3861,-135.58038 -52.8652,-198.76758 -9.9042,-21.88474 -23.5096,-44.73537 -46.8047,-54.25976 z m 2666.25,3.25976 c -17.5871,45.67857 25.0546,88.27202 16.7519,135.35938 6.8916,53.0195 18.0699,108.63652 0.037,160.72852 -38.8834,12.9516 -12.4169,93.63074 18.8985,45.56836 40.4684,-69.3239 11.3815,-150.95637 9.1328,-225.56055 -7.0691,-36.38657 -1.1516,-103.36368 -44.8203,-116.09571 z m -3041.2266,7.16211 c -38.8279,42.02733 -32.5845,105.31251 -56.6406,154.93946 -17.8179,67.3292 -21.7514,143.10544 14.3887,205.18554 23.1904,53.5749 95.9224,-27.45158 29.1992,-36.80078 -22.7901,-35.3239 -11.3192,-81.22879 -7.5567,-120.40429 7.922,-51.9535 27.0316,-100.98698 49.7227,-147.95704 8.8868,-22.77279 -2.2521,-52.68013 -29.1133,-54.96289 z m 2766.6446,6.75196 c -35.444,36.90656 -42.7783,90.31596 -61.5801,136.0664 -13.7016,51.6695 -13.8913,110.05869 13.7011,157.36719 28.308,41.1604 86.5156,-33.49533 26.3086,-31.89453 -33.5131,-38.0627 -5.6568,-91.53935 4.4571,-133.65625 4.1294,-41.62223 66.2734,-86.31292 28.2207,-123.61133 l -5.2813,-2.78515 z m -1090.1543,5.22265 c -47.3948,29.71494 -45.3483,92.30243 -53.5957,141.45899 -6.5164,52.012 -5.2641,113.55522 34.9355,152.29492 22.4618,26.3394 42.6055,-12.24114 14.9844,-25.68164 -37.1919,-64.6067 -12.8246,-143.43241 12.6191,-207.77149 11.6339,-20.52099 20.2148,-49.98015 -8.9433,-60.30078 z m 1256.4296,32.31836 c -18.9708,13.8003 -25.2121,83.28161 -52.3593,36.92774 -19.7561,-44.70783 -77.5078,15.1838 -28.4981,29.54687 51.0485,17.90009 24.9261,76.61766 2.8672,107.22266 -19.923,42.2923 -40.7597,85.87788 -43.8594,133.26758 26.7618,46.3567 52.2106,-28.15679 52.2657,-52.70899 20.4488,-36.6198 33.2649,-95.35945 64.6445,-115.59765 16.2113,10.4959 57.057,58.81943 50.3711,9.89453 -24.3755,-34.6656 -47.1287,-76.14042 -20.7988,-116.07032 1.3869,-15.06063 -8.2602,-31.66689 -24.6329,-32.48242 z m -1076.6093,0.39649 c -32.2233,6.17861 -30.7945,106.11531 -66.4258,54.57031 -9.2624,-37.03664 -81.2513,-36.00907 -52.9766,8.98633 35.9129,28.57428 72.9921,74.87162 32.418,116.14062 -21.0899,41.8827 -47.6562,82.45188 -55.6055,129.48438 5.2963,48.6315 58.1615,5.24102 49.7989,-25.04688 22.3492,-36.7568 35.483,-99.67878 67.6601,-117.80078 16.587,12.2773 58.5974,41.17263 49.4199,-2.23437 -41.9743,-33.2005 -34.2681,-88.6918 -1.5332,-123.74219 6.0023,-17.67009 -2.2342,-39.08695 -22.7558,-40.35742 z m -1578.0957,0.23437 c -37.2321,16.20192 -33.3542,114.27492 -84.7305,83.26172 -15.2051,-35.26449 -96.6987,-52.91972 -69.543,4.61914 27.4074,26.3078 94.4585,53.7127 51.2656,98.7793 -23.8371,45.5923 -50.5763,96.04731 -51.8105,147.57031 20.0538,50.8001 59.5234,7.46101 54.8223,-29.18359 11.0198,-43.7211 31.1619,-84.76055 56.3261,-122.02735 24.4712,24.9891 81.2383,9.9725 44.8555,-26.625 -35.2118,-38.8173 3.4299,-77.66009 20.1953,-113.7207 10.6835,-19.32509 1.9451,-40.74639 -21.3808,-42.67383 z m 375.1875,17.45899 c -30.3104,27.38122 12.0475,112.39726 -56.3028,95.41406 -57.2896,10.9237 -11.1912,86.3621 32.5059,58.6582 17.5083,17.7846 17.572,83.35074 58.8164,44.74024 3.7713,-31.3205 2.8406,-77.51603 49.1699,-65.58203 30.8719,4.9363 100.1987,-31.49738 52.082,-57.85938 -33.8167,2.0719 -117.1,23.87496 -95.7714,-37.68555 1.8081,-22.34635 -22.0037,-34.16349 -40.5,-37.68554 z m 807.5683,17.24218 c -1.5886,-0.0127 -3.2414,0.0536 -4.959,0.20313 -25.7165,25.59622 -33.8584,112.5308 -76.7187,93.1875 8.392,-31.3576 8.6668,-76.13113 -37.5195,-68.95117 -42.8756,17.87712 -13.8018,94.96459 -29.6661,129.15429 -44.4227,135.40632 -69.3623,178.61614 -75.5703,192.72591 -24.6938,58.09616 -1.8964,90.60931 29.4794,58.08842 41.7385,-66.70939 72.0492,-183.93973 92.4308,-218.53503 26.8595,-9.7832 73.4541,-74.46788 89.6426,-27.45898 2.7706,27.1756 53.5203,68.39999 61.9511,32.40429 -24.3295,-39.5997 -51.3856,-87.00522 -22.1816,-131.85742 11.3048,-25.8854 5.4141,-58.70222 -26.8887,-58.96094 z m -2544.31247,1.15039 c -12.21319,-0.008 -24.93955,2.41829 -36.76758,0.72266 C 90.618428,255.20455 39.882894,230.01374 1.4937546,259.00781 -12.849576,318.5924 79.897506,312.20856 117.29844,297.41016 c 28.3601,-4.3659 112.54042,-1.50826 79.96094,-48.7461 -8.2151,-6.03789 -17.4032,-7.51689 -26.90235,-7.52344 z M 3462.5875,249 c -29.1179,0.46093 -35.6954,52.89925 -19.5,56.74805 -54.0712,-13.9803 -25.1075,78.39562 18.3769,49.66992 30.3447,2.3395 59.0727,-51.4816 14.0059,-51.5332 43.4706,-5.2258 61.468,-59.71378 3.2207,-50.49415 -5.9708,-3.14875 -11.3388,-4.46605 -16.1035,-4.39062 z m -2382.7109,3.70508 c -1.9223,0.0375 -3.9145,0.19167 -5.9747,0.46875 -31.5414,38.86958 -18.7141,97.00833 -55.3496,133.92773 -8.1535,26.0042 -67.271,71.99946 -57.3066,14.93946 4.874,-34.5711 44.4508,-72.25516 15.125,-104.81446 -49.2205,-30.76674 -70.08528,40.17375 -61.80468,77.21485 -18.53006,103.51173 -52.02572,203.59701 -96.24024,298.79101 0.17664,0.16888 0.35719,0.33464 0.53321,0.50391 -32.28595,46.34686 37.55214,108.62319 63.75195,-25.54688 17.7774,-43.8816 32.3512,-88.97476 46.0957,-134.25586 40.8387,-9.3997 77.38986,-30.43716 99.06246,-66.53906 42.9244,-21.4951 16.8389,55.14526 60.4629,55.19336 34.8367,18.5361 47.5525,-23.33088 18.0938,-40.95508 -28.508,-49.4023 -11.8113,-107.3992 6.8593,-156.6914 8.6472,-27.2195 -4.4745,-52.79864 -33.3085,-52.23633 z M 537.48203,355.53125 c -4.90547,0 -8.93069,0.28767 -11.36914,0.82227 -120.11842,3.0794 -242.53384,11.79249 -356.72461,51.46289 -45.87995,35.5797 33.42983,83.12527 62.5293,43.35547 82.79455,-29.55661 171.63245,-34.38567 258.10742,-46.28907 30.5296,-5.8458 64.21067,-2.56145 92.45117,-15.53125 33.63688,-25.2094 -18.50457,-33.80471 -44.99414,-33.82031 z m -99.60351,149.8418 c -42.63723,7.7861 -96.76332,9.43249 -121.75,50.87109 -26.96056,43.1664 63.79073,38.57052 51.99218,47.86524 -29.94414,36.83708 -90.40265,44.27916 -106.94336,91.66406 0.66732,58.2541 70.28309,50.66599 106.91407,30.90429 43.63483,-12.5475 88.31723,-20.97734 133.0625,-28.43554 37.62855,20.192 89.29046,-46.87993 25.81445,-48.08203 -28.33265,-9.5342 -98.08222,20.76289 -101.83984,-7.47071 29.98355,-30.0507 99.02248,-78.01167 55.93359,-123.32617 -12.24174,-9.4656 -27.92252,-13.56473 -43.18359,-13.99023 z"
     id="path4445"
     inkscape:connector-curvature="0"
     sodipodi:nodetypes="cccccccscccccccccccccccccccccccccccccccccccccsccccccccccccccccccccccccccccccccccccccccccccccccccccccccccccccccccccccccccccccccccccccccccccsccccsscccsscccccccccccccscccccccccccccccccc" />
</svg>
