<?xml version="1.0" encoding="UTF-8" standalone="no"?>
<svg width="225px" height="147px" viewBox="0 0 225 147" version="1.1" xmlns="http://www.w3.org/2000/svg" xmlns:xlink="http://www.w3.org/1999/xlink">
    <!-- Generator: Sketch 48.2 (47327) - http://www.bohemiancoding.com/sketch -->
    <title>main</title>
    <desc>Created with Sketch.</desc>
    <defs>
        <filter x="-0.4%" y="-0.9%" width="100.7%" height="102.5%" filterUnits="objectBoundingBox" id="filter-1">
            <feOffset dx="0" dy="2" in="SourceAlpha" result="shadowOffsetOuter1"></feOffset>
            <feGaussianBlur stdDeviation="2" in="shadowOffsetOuter1" result="shadowBlurOuter1"></feGaussianBlur>
            <feColorMatrix values="0 0 0 0 0   0 0 0 0 0   0 0 0 0 0  0 0 0 0.2 0" type="matrix" in="shadowBlurOuter1" result="shadowMatrixOuter1"></feColorMatrix>
            <feMerge>
                <feMergeNode in="shadowMatrixOuter1"></feMergeNode>
                <feMergeNode in="SourceGraphic"></feMergeNode>
            </feMerge>
        </filter>
        <polygon id="path-2" points="216.826832 0.0447022256 216.826832 139.2 0.000258777205 139.2 0.000258777205 0.0447022256 216.826832 0.0447022256"></polygon>
    </defs>
    <g id="Desktop-(SIDEARM)" stroke="none" stroke-width="1" fill="none" fill-rule="evenodd" transform="translate(-848.000000, -13.000000)">
        <g id="top" filter="url(#filter-1)">
            <g id="logo" transform="translate(852.000000, 15.000000)">
                <g id="main">
                    <g id="Group-3">
                        <mask id="mask-3" fill="white">
                            <use xlink:href="#path-2"></use>
                        </mask>
                        <g id="Clip-2"></g>
                        <path d="M216.827091,57.5189867 C216.827091,37.7809422 205.570283,20.8320533 190.069528,16.4988089 C188.982664,13.4776533 186.798584,9.36609778 182.417486,6.08716444 C173.567306,-0.545457778 159.689084,-1.72350222 141.155461,2.58138667 C121.987833,7.03578667 109.848595,17.1870756 98.1078728,26.9929422 C83.3653354,39.31472 67.4479495,53.2965867 30.5721978,50.0975644 C35.2741796,59.33632 42.307744,68.10592 56.7242221,71.72512 C50.9069106,75.2308978 40.0253291,80.3529422 19.3231527,80.8581867 C26.1315809,89.28752 32.3422339,93.9764978 41.389085,96.4872533 C31.7263441,101.854187 14.4400268,114.92352 0.000258777205,135.393653 C28.7581696,124.206098 115.050016,95.13392 204.682677,139.201031 C206.204287,128.781653 207.177289,112.340587 197.191077,97.4642311 C214.169449,81.30672 216.827091,65.69312 216.827091,57.5189867" id="Fill-1" fill="#FEFEFE" mask="url(#mask-3)"></path>
                    </g>
                    <path d="M212.195572,57.244587 C212.195572,39.5530209 201.86791,23.3088761 186.391978,21.2319167 C186.391978,21.2319167 185.196334,-1.7075196 143.41884,7.99097787 C101.643939,17.6843152 94.820212,57.0923627 42.0718455,55.9364896 C42.0718455,55.9364896 49.4687548,67.4590993 71.8280658,67.3765369 C71.8280658,67.3765369 58.7641696,83.0659658 32.6597193,85.380292 C32.6597193,85.380292 40.6531536,93.6133075 64.3559425,92.7980042 C64.3559425,92.7980042 38.541974,102.419099 16.8154982,124.326506 C16.8154982,124.326506 106.825925,86.6316278 200.88494,130.4 C200.88494,130.4 204.126924,115.856124 190.863321,96.1753208 C206.966901,82.4467481 212.195572,68.1376587 212.195572,57.244587" id="Fill-4" fill="#0E1030"></path>
                    <path d="M104.221979,41.4638386 C95.9472136,49.6011263 83.8105462,54.2230025 78.709628,55.9175185 C78.709628,55.9175185 91.8757911,55.7550307 104.051259,48.7293661 C93.598515,60.1344647 75.4012738,78.3253649 62.4575646,83.2 C62.4575646,83.2 80.644459,78.9985288 101.619786,60.6219283 C114.472962,49.3638424 140.738035,10.7820084 170.557196,16.8714335 C157.178925,7.48324739 126.95107,19.1049965 104.221979,41.4638386" id="Fill-6" fill="#CA2026"></path>
                    <path d="M129.719557,40.7618757 C147.489791,41.514226 166.212325,30.9347849 170.557196,26.4 C160.72366,30.6503913 147.111976,35.4669844 129.719557,40.7618757" id="Fill-8" fill="#CA2026"></path>
                    <path d="M185.584107,91.2 C218.275722,59.8203772 194.709897,30.628878 189.450436,28 C211.94663,59.3039904 186.048484,84.7373416 182.568266,87.9295506 C183.637898,89.0249164 184.631873,90.1150662 185.584107,91.2" id="Fill-10" fill="#CA2026"></path>
                    <polygon id="Fill-12" fill="#FEFEFE" points="153.235617 50.519587 146.357986 48.8 140.929889 54.9758669 150.265093 60.6038527 148.820663 66.4 155.369086 63.3513947 161.749077 49.1308984"></polygon>
                    <path d="M187.372694,51.738277 L184.489325,49.3827699 L180.52208,51.4791712 L174.747507,50.748964 L172.62938,45.7657579 L185.510518,40.8689204 C183.669236,34.017012 178.430071,32.8 178.430071,32.8 C177.670052,33.6061069 157.374163,39.306434 152.140221,40.5888768 L167.933458,45.4071974 L167.933458,60.4013086 L171.610798,60.4013086 L173.60095,57.6087241 L176.134345,64.1832061 L166.0086,64.1832061 L166.0086,68.538277 L174.885929,68.538277 L177.594311,75.5262814 L176.165686,75.5262814 L172.579756,73.3958561 L163.673698,73.3958561 L163.673698,78.5858233 L171.749221,78.5858233 L168.463643,83.9459106 L162.396553,83.6946565 L159.285962,88.8322792 L166.071282,92.8 C166.071282,92.8 169.288955,90.6486369 173.875183,86.7908397 C178.456188,82.9304253 179.589686,79.8551799 179.589686,79.8551799 L184.108009,66.6172301 L180.843325,66.6172301 L186.414182,58.8100327 L187.372694,51.738277 Z" id="Fill-14" fill="#FEFEFE"></path>
                    <path d="M140.929889,65.6 C140.929889,65.6 141.60887,75.3451852 142.724339,77.5723457 C143.781099,79.68 145.292214,80.9266667 148.937269,83.2 L147.650779,80.4649383 L145.141613,76.7140741 L140.929889,65.6 Z" id="Fill-16" fill="#FEFEFE"></path>
                    <path d="M123.530079,95.329213 C133.705442,95.4542797 144.16015,96.3723226 154.542435,98.4 C152.931034,95.6831252 151.329979,93.3946704 150.09621,91.7395322 C139.744963,89.8874805 129.704098,89.3419767 120.110701,89.7065329 C121.204798,91.3483661 122.389424,93.2376718 123.530079,95.329213" id="Fill-18" fill="#CA2026"></path>
                    <path d="M156.453157,102.095084 C145.943072,99.825849 135.298275,98.7030917 124.915129,98.4 C125.705264,100.03406 126.443586,101.744551 127.091238,103.515661 C137.479565,104.467106 148.282388,106.153877 159.346863,108.8 C158.538595,106.456969 157.53603,104.195641 156.453157,102.095084" id="Fill-20" fill="#CA2026"></path>
                    <path d="M158.514911,99.260661 C163.193209,100.313156 167.846025,101.593778 172.440236,103.14919 C173.15625,104.47129 173.864619,105.865975 174.514383,107.320285 C169.871759,105.60674 165.145048,104.186131 160.385211,103.011795 C161.330553,105.093454 162.17652,107.302139 162.839024,109.570447 C171.688549,111.841348 180.696055,114.744783 189.774908,118.4 C188.330139,104.175762 176.152806,90.4 176.152806,90.4 L176.152806,99.3254699 C168.847426,96.4375891 161.631228,94.3066753 154.542435,92.7953338 C155.803741,94.6307194 157.187355,96.8212573 158.514911,99.260661" id="Fill-22" fill="#CA2026"></path>
                    <path d="M90.4753586,96.8 C99.2710446,95.6406128 108.73257,94.878803 118.509225,94.8223726 C117.314781,92.8190951 116.122877,91.0569291 115.07075,89.6 C105.843031,90.1873887 97.0625929,91.5878874 88.8819188,93.4577841 C89.4384791,94.5350908 89.9747085,95.6483078 90.4753586,96.8" id="Fill-24" fill="#CA2026"></path>
                    <path d="M121.070177,98.4144485 C110.975817,98.2851115 101.189839,99.0340627 92.0848708,100.26126 C92.4292304,101.344081 92.7478914,102.435925 93.0331444,103.548825 C102.544149,103.010422 112.692475,103.064563 123.313653,104 C122.635213,102.056938 121.871969,100.186064 121.070177,98.4144485" id="Fill-26" fill="#CA2026"></path>
                    <path d="M88.0811808,98.1209564 C87.5988343,97.1184248 87.0833105,96.1381716 86.5601304,95.2 C76.0327259,97.7075668 66.56189,100.895865 58.4538745,104 C66.5772026,101.88602 76.711584,99.7151055 88.0811808,98.1209564" id="Fill-28" fill="#CA2026"></path>
                    <path d="M88.7488889,100 C72.0254884,102.051157 57.8808224,105.381242 48.8450185,108 C59.9888356,105.598051 73.8827912,103.383678 89.6826568,102.45067 C89.398689,101.619976 89.0891386,100.803898 88.7488889,100" id="Fill-30" fill="#CA2026"></path>
                    <path d="M115.306273,95.6675426 C114.246436,93.7054988 113.169018,91.923309 112.182014,90.4 C109.989507,90.623455 107.83216,90.8905109 105.697417,91.2011679 C106.599032,92.6236496 107.555899,94.2477859 108.497698,96 C110.740434,95.8501217 113.010796,95.7383942 115.306273,95.6675426" id="Fill-32" fill="#FEFEFE"></path>
                    <path d="M149.738007,97.6 C148.186144,95.016577 146.63682,92.8232508 145.437999,91.2318622 C142.842246,90.8779333 140.266813,90.5989236 137.726937,90.4 C138.849562,91.8363832 140.411585,93.9780409 142.039645,96.5717976 C144.604919,96.8508073 147.172733,97.1944026 149.738007,97.6" id="Fill-34" fill="#FEFEFE"></path>
                    <path d="M143.332103,100 C144.436968,101.797554 145.5068,103.739402 146.425724,105.774185 C149.112431,106.202174 151.820696,106.681522 154.542435,107.2 C153.669323,105.069837 152.61566,103.022826 151.505406,101.122554 C148.783666,100.689674 146.059232,100.315489 143.332103,100" id="Fill-36" fill="#FEFEFE"></path>
                    <path d="M108.900369,98.6566125 C109.530761,100.251508 110.136335,101.914617 110.684826,103.632947 C112.995437,103.704408 115.343275,103.834339 117.708487,104 C117.09795,102.054292 116.41792,100.193039 115.71059,98.4 C113.417353,98.4389791 111.14397,98.5234339 108.900369,98.6566125" id="Fill-38" fill="#FEFEFE"></path>
                </g>
            </g>
        </g>
    </g>
</svg>